<svg width="24" height="25" viewBox="0 0 24 25" fill="none" xmlns="http://www.w3.org/2000/svg">
<path d="M9 10.5H10C10.2652 10.5 10.5196 10.3946 10.7071 10.2071C10.8946 10.0196 11 9.76522 11 9.5C11 9.23478 10.8946 8.98043 10.7071 8.79289C10.5196 8.60536 10.2652 8.5 10 8.5H9C8.73478 8.5 8.48043 8.60536 8.29289 8.79289C8.10536 8.98043 8 9.23478 8 9.5C8 9.76522 8.10536 10.0196 8.29289 10.2071C8.48043 10.3946 8.73478 10.5 9 10.5ZM9 12.5C8.73478 12.5 8.48043 12.6054 8.29289 12.7929C8.10536 12.9804 8 13.2348 8 13.5C8 13.7652 8.10536 14.0196 8.29289 14.2071C8.48043 14.3946 8.73478 14.5 9 14.5H15C15.2652 14.5 15.5196 14.3946 15.7071 14.2071C15.8946 14.0196 16 13.7652 16 13.5C16 13.2348 15.8946 12.9804 15.7071 12.7929C15.5196 12.6054 15.2652 12.5 15 12.5H9ZM20 9.44C19.9896 9.34813 19.9695 9.25763 19.94 9.17V9.08C19.8919 8.97718 19.8278 8.88267 19.75 8.8L13.75 2.8C13.6673 2.72222 13.5728 2.65808 13.47 2.61C13.4402 2.60576 13.4099 2.60576 13.38 2.61C13.2784 2.55174 13.1662 2.51434 13.05 2.5H7C6.20435 2.5 5.44129 2.81607 4.87868 3.37868C4.31607 3.94129 4 4.70435 4 5.5V19.5C4 20.2956 4.31607 21.0587 4.87868 21.6213C5.44129 22.1839 6.20435 22.5 7 22.5H17C17.7956 22.5 18.5587 22.1839 19.1213 21.6213C19.6839 21.0587 20 20.2956 20 19.5V9.5C20 9.5 20 9.5 20 9.44ZM14 5.91L16.59 8.5H15C14.7348 8.5 14.4804 8.39464 14.2929 8.20711C14.1054 8.01957 14 7.76522 14 7.5V5.91ZM18 19.5C18 19.7652 17.8946 20.0196 17.7071 20.2071C17.5196 20.3946 17.2652 20.5 17 20.5H7C6.73478 20.5 6.48043 20.3946 6.29289 20.2071C6.10536 20.0196 6 19.7652 6 19.5V5.5C6 5.23478 6.10536 4.98043 6.29289 4.79289C6.48043 4.60536 6.73478 4.5 7 4.5H12V7.5C12 8.29565 12.3161 9.05871 12.8787 9.62132C13.4413 10.1839 14.2044 10.5 15 10.5H18V19.5ZM15 16.5H9C8.73478 16.5 8.48043 16.6054 8.29289 16.7929C8.10536 16.9804 8 17.2348 8 17.5C8 17.7652 8.10536 18.0196 8.29289 18.2071C8.48043 18.3946 8.73478 18.5 9 18.5H15C15.2652 18.5 15.5196 18.3946 15.7071 18.2071C15.8946 18.0196 16 17.7652 16 17.5C16 17.2348 15.8946 16.9804 15.7071 16.7929C15.5196 16.6054 15.2652 16.5 15 16.5Z" fill="#8D8D8D"/>
</svg>
