<svg width="24" height="25" viewBox="0 0 24 25" fill="none" xmlns="http://www.w3.org/2000/svg">
<path d="M11.9809 15.3852L8.10093 19.2652C7.63117 19.7186 7.00379 19.972 6.35093 19.972C5.69807 19.972 5.07069 19.7186 4.60093 19.2652C4.37054 19.0357 4.18772 18.763 4.06298 18.4627C3.93824 18.1624 3.87403 17.8404 3.87403 17.5152C3.87403 17.19 3.93824 16.868 4.06298 16.5677C4.18772 16.2674 4.37054 15.9947 4.60093 15.7652L8.48093 11.8852C8.66923 11.6969 8.77502 11.4415 8.77502 11.1752C8.77502 10.9089 8.66923 10.6535 8.48093 10.4652C8.29263 10.2769 8.03723 10.1711 7.77093 10.1711C7.50463 10.1711 7.24923 10.2769 7.06093 10.4652L3.18093 14.3552C2.39929 15.206 1.97655 16.3259 2.001 17.481C2.02546 18.636 2.49521 19.737 3.31216 20.554C4.12911 21.3709 5.23009 21.8407 6.38518 21.8651C7.54026 21.8896 8.66014 21.4669 9.51093 20.6852L13.4009 16.8052C13.5892 16.6169 13.695 16.3615 13.695 16.0952C13.695 15.8289 13.5892 15.5735 13.4009 15.3852C13.2126 15.1969 12.9572 15.0911 12.6909 15.0911C12.4246 15.0911 12.1692 15.1969 11.9809 15.3852ZM20.5609 3.30521C19.7197 2.46922 18.5819 2 17.3959 2C16.21 2 15.0722 2.46922 14.2309 3.30521L10.3409 7.18521C10.2477 7.27845 10.1737 7.38914 10.1233 7.51096C10.0728 7.63278 10.0468 7.76335 10.0468 7.89521C10.0468 8.02707 10.0728 8.15764 10.1233 8.27946C10.1737 8.40128 10.2477 8.51197 10.3409 8.60521C10.4342 8.69845 10.5449 8.77241 10.6667 8.82287C10.7885 8.87333 10.9191 8.8993 11.0509 8.8993C11.1828 8.8993 11.3134 8.87333 11.4352 8.82287C11.557 8.77241 11.6677 8.69845 11.7609 8.60521L15.6409 4.72521C16.1107 4.27184 16.7381 4.01847 17.3909 4.01847C18.0438 4.01847 18.6712 4.27184 19.1409 4.72521C19.3713 4.9547 19.5541 5.22742 19.6789 5.52773C19.8036 5.82804 19.8678 6.15003 19.8678 6.47521C19.8678 6.8004 19.8036 7.12238 19.6789 7.42269C19.5541 7.723 19.3713 7.99572 19.1409 8.22521L15.2609 12.1052C15.1672 12.1982 15.0928 12.3088 15.042 12.4306C14.9913 12.5525 14.9651 12.6832 14.9651 12.8152C14.9651 12.9472 14.9913 13.0779 15.042 13.1998C15.0928 13.3216 15.1672 13.4322 15.2609 13.5252C15.3539 13.6189 15.4645 13.6933 15.5864 13.7441C15.7082 13.7949 15.8389 13.821 15.9709 13.821C16.1029 13.821 16.2336 13.7949 16.3555 13.7441C16.4774 13.6933 16.588 13.6189 16.6809 13.5252L20.5609 9.63521C21.3969 8.79399 21.8661 7.65619 21.8661 6.47021C21.8661 5.28424 21.3969 4.14643 20.5609 3.30521ZM8.70093 15.1652C8.79437 15.2579 8.90519 15.3312 9.02702 15.381C9.14886 15.4307 9.27932 15.456 9.41093 15.4552C9.54254 15.456 9.673 15.4307 9.79484 15.381C9.91667 15.3312 10.0275 15.2579 10.1209 15.1652L15.0409 10.2452C15.2292 10.0569 15.335 9.80151 15.335 9.53521C15.335 9.26891 15.2292 9.01352 15.0409 8.82521C14.8526 8.63691 14.5972 8.53112 14.3309 8.53112C14.0646 8.53112 13.8092 8.63691 13.6209 8.82521L8.70093 13.7452C8.6072 13.8382 8.53281 13.9488 8.48204 14.0706C8.43127 14.1925 8.40513 14.3232 8.40513 14.4552C8.40513 14.5872 8.43127 14.7179 8.48204 14.8398C8.53281 14.9616 8.6072 15.0722 8.70093 15.1652Z" fill="#8D8D8D"/>
</svg>
