<svg width="1440" height="1024" viewBox="0 0 1440 1024" fill="none" xmlns="http://www.w3.org/2000/svg">
<g clip-path="url(#clip0_666_6241)">
<rect width="1440" height="1024" fill="url(#paint0_radial_666_6241)"/>
<path d="M679.071 722.629C679.071 722.629 682.347 714.656 682.562 714.656C682.778 714.656 688.899 716.208 688.899 716.208L687.994 724.525L691.227 724.956L690.192 748.743L687.304 762.318L662.001 752.708L664.371 741.116L674.932 722.025L679.071 722.629Z" fill="#462391" stroke="#462391" stroke-miterlimit="10"/>
<path d="M686.873 749.52L685.364 759.087L665.148 751.847L666.743 742.496L686.873 749.52Z" fill="#F6F7FA"/>
<path d="M680.752 752.969L678.985 768.396" stroke="#462391" stroke-width="5" stroke-miterlimit="10" stroke-linecap="round"/>
<path d="M672.045 750.77L663.941 762.319" stroke="#462391" stroke-width="5" stroke-miterlimit="10" stroke-linecap="round"/>
<path d="M777.18 708.879C777.784 708.923 836.322 712.672 869.556 678.628C867.444 674.404 865.116 670.224 862.616 666.217C859.297 660.916 854.987 656.219 852.271 650.66C844.9 635.491 838.261 617.65 835.761 599.68C835.977 606.058 835.934 612.479 835.761 618.9C835.503 627.518 835.589 637.344 831.02 645.014C828.778 648.72 825.2 651.651 820.89 652.556C819.209 652.901 818.045 653.202 816.407 653.375C816.407 653.375 815.458 653.461 813.562 653.762C810.717 654.15 805.673 654.926 798.431 656.262C798.431 656.262 791.535 657.684 783.517 660.227C773.344 663.459 761.231 667.639 754.722 676.602C747.739 686.212 746.575 699.485 750.153 710.646C751.92 716.205 755.67 720.903 761.791 721.075C767.007 721.247 772.395 719.437 774.982 714.697C775.973 712.887 776.663 710.905 777.18 708.879Z" fill="#E1BB9A"/>
<path d="M1065.9 756.933C1058.88 757.968 1052.07 762.751 1054.35 770.896C1054.78 772.49 1055.52 772.921 1057.15 772.964C1069.52 773.481 1082.54 774.645 1094.74 771.801C1100.86 770.379 1106.85 768.353 1112.5 765.595C1128.62 757.752 1140.39 743.79 1141.38 725.389C1141.47 723.493 1141.47 721.553 1141.38 719.657C1117.46 707.462 1095.3 692.896 1088.62 681.648C1088.62 681.648 1078.02 688.759 1048.75 690.44C1048.75 690.44 1065.3 708.151 1079.14 715.434C1086.25 719.183 1088.41 727.63 1088.62 735.085C1088.75 739.567 1089.01 756.287 1082.89 756.933C1077.24 757.58 1071.59 756.115 1065.9 756.933Z" fill="#E1BB9A"/>
<path d="M1048.7 690.479C1051.64 692.806 1053.49 696.684 1057.02 697.804C1059.35 698.537 1061.85 697.891 1064.22 697.244C1067.5 696.339 1070.82 695.564 1074.05 694.659C1076.51 693.969 1079.09 692.547 1081.72 692.719C1085.3 692.978 1088.06 696.081 1090.47 698.365C1093.45 701.166 1096.55 703.881 1099.7 706.509C1107.07 712.629 1114.87 718.705 1123.41 723.014C1126.3 724.436 1129.23 725.729 1132.29 726.764C1132.98 727.022 1141.08 729.004 1141.08 728.875C1141.21 727.755 1141.34 726.634 1141.38 725.471C1141.47 723.575 1141.47 721.635 1141.38 719.739C1117.46 707.544 1095.3 693.021 1088.62 681.73C1088.97 682.334 1075.6 686.643 1074.7 686.859C1067.07 688.669 1059.22 689.875 1051.33 690.349C1050.43 690.392 1049.57 690.435 1048.7 690.479Z" fill="#CEAA8E"/>
<path d="M843.52 548.962C853.607 554.651 864.728 558.572 875.677 559.52C886.195 560.468 896.929 559.693 907.102 557.581C919.387 555.039 930.896 550.6 940.293 544.912C956.286 535.215 965.984 521.986 962.493 508.713C959.346 496.733 954.13 484.666 946.242 474.108C939.733 465.36 931.37 457.647 920.896 451.786C917.921 450.148 914.818 448.64 911.498 447.304C910.119 446.744 908.697 446.227 907.274 445.753C902.101 443.986 896.541 442.607 890.549 441.659C879.255 439.935 869.211 440.409 860.245 442.65C859.814 442.736 859.426 442.865 859.038 442.952C854.555 444.158 850.374 445.796 846.495 447.821C836.365 453.036 828.045 460.749 821.234 469.885C816.32 476.435 812.182 483.718 808.734 491.303C800.285 509.79 818.562 534.871 843.52 548.962Z" fill="#E1BB9A"/>
<path d="M821.494 417.609C814.209 426.056 821.408 469.882 821.408 469.882C828.218 460.746 836.538 453.033 846.668 447.818C843.521 431.227 821.494 417.609 821.494 417.609Z" fill="#D8A382"/>
<path d="M824.512 416.19C823.305 416.147 822.271 416.621 821.452 417.569C821.452 417.569 843.479 431.187 846.626 447.778C850.548 445.753 854.73 444.115 859.17 442.908C859.213 442.951 836.582 416.794 824.512 416.19Z" fill="#CEAA8E"/>
<path d="M911.242 447.646C914.561 448.981 917.664 450.49 920.639 452.127C928.355 438.725 953.054 429.417 953.054 429.417C952.71 429.115 952.365 428.9 951.934 428.77C942.752 425.84 911.716 447.344 911.242 447.646Z" fill="#E1BB9A"/>
<path d="M920.637 452.128C931.112 457.989 939.475 465.703 945.984 474.451C945.984 474.451 959.907 435.537 953.096 429.418C953.096 429.418 928.353 438.683 920.637 452.128Z" fill="#D8A382"/>
<path d="M1115.3 570.852C1118.84 572.447 1122.37 574.127 1125.82 575.937C1128.71 577.445 1131.6 578.997 1134.4 580.634C1134.83 580.893 1135.26 581.108 1135.65 581.367C1131.47 560.423 1146.51 548.099 1164.44 541.591C1175.78 537.454 1189.92 538.101 1201.99 536.808C1211.95 535.774 1221.86 536.334 1231.65 534.352C1229.71 533.878 1227.72 531.981 1225.96 530.947C1226.82 531.464 1227.85 531.68 1228.85 531.809C1229.58 531.895 1230.27 532.068 1231.04 532.111C1231.82 532.154 1232.55 532.111 1233.33 531.981C1235.96 531.464 1238.59 531.033 1241.17 530.387C1259.58 525.647 1281.43 518.579 1292.9 505.134C1288.03 507.375 1282.6 504.875 1277.68 504.1C1279.62 504.401 1281.61 504.358 1283.55 504.014C1286.43 503.496 1289.37 502.333 1291.48 500.221C1293.37 498.325 1294.63 495.955 1295.96 493.671C1297.77 490.568 1299.45 487.379 1300.88 484.104C1309.76 463.419 1308.98 438.382 1296.22 419.42C1292.3 413.603 1287.08 408.819 1282.12 403.605C1278.76 400.114 1275.57 396.408 1272.99 392.099C1274.02 399.166 1274.88 409.164 1279.71 414.551C1277.94 412.655 1276.56 410.457 1275.4 408.173C1274.37 406.148 1273.5 403.993 1272.64 401.881C1271.82 399.813 1271.26 397.615 1269.75 395.934C1269.41 395.546 1268.98 395.245 1268.55 394.943C1267.77 394.469 1266.91 394.081 1266.09 393.65C1264.92 393.047 1263.76 392.444 1262.6 391.883C1260.23 390.72 1257.86 389.643 1255.44 388.651C1250.79 386.755 1246 385.161 1241.17 383.954C1235.83 382.618 1230.83 380.895 1226.39 378.395C1220.31 375.034 1215.22 370.25 1211.82 363.226C1211.34 362.278 1211.26 360.08 1210.78 355.685C1210.78 355.771 1210.53 356.029 1210.48 356.116C1210.35 356.288 1210.22 356.46 1210.09 356.633C1209.66 357.15 1209.19 357.667 1208.8 358.227C1208.59 358.529 1208.37 358.874 1208.15 359.175C1208.07 359.348 1207.94 359.477 1207.81 359.649C1207.72 359.779 1207.55 359.951 1207.51 360.08C1207.77 359.305 1208.03 358.486 1208.28 357.71C1208.5 357.021 1208.76 356.417 1208.67 355.642C1208.59 355.038 1208.24 354.435 1208.03 353.875C1207.68 352.884 1207.34 351.892 1207.03 350.901C1206.39 348.833 1205.83 346.721 1205.61 344.566C1205.48 343.274 1205.35 341.507 1206.34 340.516C1200.01 347.066 1193.2 354.564 1190.91 363.571C1190.61 364.691 1190.39 365.812 1190.27 366.975C1189.14 376.283 1189.66 385.807 1191.6 394.943C1191.95 396.581 1192.33 398.175 1192.77 399.77C1193.11 401.019 1193.28 402.441 1193.97 403.562C1194.62 404.639 1195.61 405.544 1196.65 406.277C1197.81 407.139 1199.23 407.699 1200.4 408.561C1201.47 409.336 1202.59 410.155 1203.67 410.974C1200.74 408.647 1195.48 409.854 1192.29 408.087C1195.78 418.214 1202.34 426.143 1210.31 432.952C1213.54 435.71 1216.99 438.295 1220.61 440.752C1224.06 443.122 1226.78 445.363 1228.93 447.561C1247.94 466.781 1220.61 478.631 1220.61 478.631C1220.22 478.804 1219.84 478.933 1219.45 479.105C1218.28 479.579 1217.12 480.053 1215.96 480.571C1215.09 480.915 1214.28 481.26 1213.41 481.648C1212.68 481.95 1211.99 482.294 1211.43 482.855C1211.17 483.07 1210.96 483.329 1210.7 483.544C1210.4 483.803 1210.09 484.061 1209.79 484.32C1208.37 485.526 1206.86 486.604 1205.35 487.681C1207.64 486.043 1209.79 483.415 1211.82 481.346C1196.99 487.595 1165.65 502.204 1138.15 516.597C1100.99 535.903 1115.09 570.421 1115.3 570.852Z" fill="#E1BB9A"/>
<path d="M860.375 442.736C862.056 445.106 864.427 452.604 864.427 452.604C864.427 450.622 869.04 446.787 869.04 446.787C869.557 446.528 874.859 457.991 874.859 457.991C875.764 456.397 883.825 448.769 885.808 448.123C887.791 447.476 892.015 456.569 892.015 456.569C892.015 456.569 895.55 450.881 896.498 450.751C897.446 450.622 896.498 464.455 896.498 464.455C897.619 459.241 905.335 448.726 907.447 445.839C902.274 444.072 896.714 442.693 890.722 441.745C879.385 440.021 869.298 440.495 860.375 442.736Z" fill="#D39C76"/>
<path d="M843.737 548.789C843.737 563.57 857.056 571.543 873.437 571.543C889.774 571.543 907.318 572.232 907.361 557.451C897.188 559.563 886.455 560.338 875.937 559.39C864.945 558.399 853.78 554.521 843.737 548.789Z" fill="#E1BB9A"/>
<path d="M843.736 548.788C853.823 554.476 864.944 558.398 875.893 559.346C886.411 560.294 897.144 559.518 907.317 557.406C917.145 544.564 906.541 498.109 882.488 496.17C861.409 494.489 838.391 533.274 843.736 548.788Z" fill="#D39C76"/>
<path d="M890.506 509.099C884.126 511.426 877.789 511.081 872.961 505.91C876.669 512.029 884.729 512.719 890.506 509.099Z" fill="#C6783E"/>
<path d="M809.295 513.018C809.295 513.018 802.398 502.977 799.467 497.073L806.838 502.891C806.838 502.891 802.096 497.633 801.406 494.746C801.406 494.746 803.174 496.642 806.751 497.763L809.295 513.018Z" fill="#E1BB9A"/>
<path d="M956.502 531.336C956.502 531.336 965.469 522.631 970.986 514.185C970.986 514.185 964.003 522.803 962.106 521.554C962.106 521.554 967.236 512.547 968.313 507.117C968.313 507.117 965.339 512.719 962.839 515.305L956.502 531.336Z" fill="#E1BB9A"/>
<path d="M962.795 510.132C962.795 510.132 964.993 505.823 966.502 499.574C966.502 499.574 962.708 506.124 961.501 505.909L962.795 510.132Z" fill="#E1BB9A"/>
<path d="M828.261 437.904C828.261 437.904 818.347 425.666 803.217 425.062" stroke="white" stroke-miterlimit="10" stroke-linecap="round"/>
<path d="M827.054 442.262C827.054 442.262 817.183 430.024 801.967 431.489" stroke="white" stroke-miterlimit="10" stroke-linecap="round"/>
<path d="M937.794 447.732C937.794 447.732 949.088 435.321 963.183 439.501" stroke="white" stroke-miterlimit="10" stroke-linecap="round"/>
<path d="M942.536 451.913C942.536 451.913 954.864 450.146 961.933 458.851" stroke="white" stroke-width="2" stroke-miterlimit="10" stroke-linecap="round"/>
<path d="M844.685 508.366L771.922 469.797" stroke="white" stroke-width="2" stroke-miterlimit="10" stroke-linecap="round"/>
<path d="M844.685 501.947L808.864 466.309" stroke="white" stroke-width="2" stroke-miterlimit="10" stroke-linecap="round"/>
<path d="M841.84 503.063L785.845 465.355" stroke="white" stroke-width="2" stroke-miterlimit="10" stroke-linecap="round"/>
<path d="M918.482 510.867L961.933 480.055" stroke="white" stroke-width="2" stroke-miterlimit="10" stroke-linecap="round"/>
<path d="M922.147 512.417L983.918 477.598" stroke="white" stroke-width="2" stroke-miterlimit="10" stroke-linecap="round"/>
<path d="M923.742 515.176L975.34 498.973" stroke="white" stroke-width="2" stroke-miterlimit="10" stroke-linecap="round"/>
<path d="M840.977 554.219C834.597 568.311 833.606 584.04 835.804 599.64C835.847 599.899 835.89 600.114 835.89 600.373C842.615 587.358 858.047 592.874 870.073 596.02C885.936 600.157 894.256 615.068 897.359 622.092C904.817 638.899 894.514 648.336 898.825 663.893C901.584 673.805 909.774 686.302 933.784 697.463C933.612 690.439 933.353 683.414 933.008 676.39C935.508 676.993 937.965 677.554 940.379 678.114H940.422C990.813 689.706 1025.56 691.775 1048.66 690.482C1056.29 690.051 1062.63 689.232 1067.89 688.284C1068.02 688.241 1068.19 688.241 1068.32 688.198C1082.89 685.483 1088.53 681.691 1088.53 681.691C1095.22 692.938 1117.37 707.461 1141.3 719.699C1163.97 731.292 1188.24 740.772 1202.42 743.358C1212.59 745.211 1221.6 751.33 1226.43 760.552C1227.29 762.233 1230.96 769.3 1229.28 770.895C1227.25 772.791 1222.12 771.067 1219.1 773.868C1216.17 776.626 1215.48 780.031 1217.98 783.177C1221.26 787.184 1224.79 788.65 1230.96 789.08C1242.68 789.942 1255.05 789.942 1268.03 787.314C1271.35 786.624 1278.03 785.073 1278.37 780.332C1278.46 778.997 1278.03 777.661 1277.55 776.368C1271.78 759.863 1266.78 742.798 1257.12 728.017C1247.47 713.278 1234.58 700.695 1218.97 692.335C1202.33 683.458 1186.47 672.684 1173.88 658.549C1160.31 643.294 1162.29 624.204 1154.14 606.578C1151.94 601.838 1149.36 597.313 1146.47 592.961C1146.21 592.573 1145.95 592.185 1145.69 591.797C1145.65 591.711 1145.56 591.581 1145.52 591.495C1145.09 590.763 1144.53 590.073 1144.01 589.384C1143.49 588.651 1142.93 587.962 1142.42 587.229C1141.3 585.85 1140.09 584.514 1138.71 583.351C1137.63 582.489 1136.51 581.756 1135.35 581.067C1134.92 580.808 1134.49 580.593 1134.1 580.334C1131.25 578.696 1128.41 577.145 1125.52 575.637C1122.07 573.87 1118.54 572.146 1115 570.552C1111.85 569.13 1108.71 567.837 1105.48 566.587C1099.14 564.174 1092.67 562.062 1086.12 560.338C1079.91 558.701 1073.58 557.365 1067.24 556.374C1061.03 555.383 1054.78 554.693 1048.53 554.219C1042.28 553.745 1035.99 553.487 1029.69 553.357C1023.27 553.228 1016.89 553.228 1010.51 553.271C1003.92 553.314 997.365 553.443 990.77 553.53C962.924 553.831 950.509 551.246 944.948 548.789C944.259 548.488 943.698 548.186 943.224 547.884C940.897 546.462 940.552 545.256 940.509 544.825C940.509 544.739 940.509 544.695 940.509 544.652C923.395 554.995 899.084 561.33 875.893 559.261C864.944 558.27 853.779 554.392 843.736 548.703C842.701 550.599 841.796 552.366 840.977 554.219Z" fill="#E1BB9A"/>
<path d="M835.891 600.372C838.434 618.083 845.029 635.666 852.314 650.619C855.03 656.178 859.34 660.876 862.659 666.176C865.16 670.184 867.487 674.364 869.599 678.587C870.806 680.957 871.927 683.371 873.005 685.784C878.522 698.152 882.488 711.425 885.376 724.741C886.411 729.481 887.316 734.264 888.221 739.005C889.04 743.357 890.808 748.356 890.032 752.795C888.911 759.388 878.221 756.975 873.781 758.785C870.246 760.207 867.401 763.008 866.711 766.843C866.237 769.386 866.108 774.945 869.212 776.022C870.031 776.281 870.893 776.281 871.712 776.281C877.315 776.238 882.876 776.238 888.48 776.195C896.325 776.195 903.739 776.453 910.593 772.273C914.904 769.644 918.525 765.981 921.413 761.844C925.982 755.337 928.482 748.356 930.853 740.858C933.612 732.153 934.215 722.672 934.043 713.493C934.043 708.149 933.957 702.806 933.827 697.462C909.774 686.301 901.584 673.804 898.868 663.892C894.558 648.335 904.817 638.898 897.403 622.091C894.299 615.067 885.98 600.113 870.117 596.019C858.047 592.874 842.615 587.401 835.891 600.372Z" fill="#DBB191"/>
<path d="M940.465 678.157C990.856 689.749 1025.6 691.818 1048.7 690.525C1056.33 690.094 1062.67 689.275 1067.93 688.327C1068.06 688.284 1068.23 688.284 1068.36 688.241C1068.75 687.638 1069.01 686.819 1069.22 686.172C1069.87 684.492 1070.21 682.682 1070.21 680.872C1070.21 675.658 1067.24 671.046 1063.62 667.599C1060.08 664.238 1055.82 661.695 1051.46 659.627C1046.03 657.084 1040.3 655.231 1034.48 653.852C1014.48 649.155 993.184 649.543 973.269 654.628C960.725 657.817 944.302 664.065 940.465 678.157Z" fill="#EDCEB7"/>
<path d="M1069.48 675.914C1069.48 675.914 1074.27 682.551 1073.88 685.093L1070.13 682.12C1070.13 682.12 1074.48 687.679 1074.35 690.049C1074.35 690.049 1071.25 685.481 1069.53 684.964C1069.53 684.964 1072.11 688.541 1071.64 690.049C1071.64 690.049 1070.39 687.851 1068.54 687.377L1069.48 675.914Z" fill="#EDCEB7"/>
<path d="M933.352 663.074C933.352 663.074 940.034 663.203 939.56 650.965L933.352 663.074Z" fill="#E1BB9A"/>
<path d="M933.353 663.074C938.353 662.902 939.819 656.912 939.689 652.818C939.646 652.172 939.646 651.568 939.56 650.922C939.517 651.568 939.517 652.172 939.474 652.818C939.215 656.826 938.051 662.342 933.353 663.074Z" fill="#C18152"/>
<path d="M933.052 676.394C933.871 668.464 934.043 656.872 930.164 649.762L930.81 651.313C931.758 653.942 932.276 656.743 932.621 659.501C933.267 665.103 933.267 670.748 933.052 676.394Z" fill="#C18152"/>
<path d="M840.977 554.219C890.635 586.755 944.949 548.875 944.949 548.875C944.259 548.574 943.699 548.272 943.225 547.97C940.897 546.548 940.552 545.342 940.509 544.911C940.509 544.824 940.509 544.781 940.509 544.738C923.396 555.081 899.084 561.416 875.893 559.347C864.944 558.356 853.78 554.477 843.736 548.789C842.701 550.599 841.796 552.366 840.977 554.219Z" fill="#CEAA8E"/>
<path d="M1088.62 681.731C1088.62 681.731 1080.9 672.207 1080.22 664.191L1088.62 681.731Z" fill="#E1BB9A"/>
<path d="M1088.62 681.731C1085.39 677.033 1082.28 672.121 1080.73 666.605C1080.47 665.829 1080.39 665.01 1080.22 664.191C1080.65 670.569 1084.57 676.904 1088.62 681.731Z" fill="#C18152"/>
<path d="M1249.54 789.47C1249.54 789.47 1254.36 783.35 1249.02 777.016L1249.54 789.47Z" fill="#E1BB9A"/>
<path d="M1249.54 789.47C1252.17 786.41 1252.51 781.627 1250.1 778.308C1249.79 777.834 1249.36 777.447 1249.02 777.016C1249.32 777.49 1249.67 777.964 1249.92 778.438C1251.99 781.842 1251.6 786.195 1249.54 789.47Z" fill="#C18152"/>
<path d="M1228.98 788.866C1228.98 788.866 1225.53 779.86 1233.03 775.723L1228.98 788.866Z" fill="#E1BB9A"/>
<path d="M1228.98 788.866C1227.81 784.772 1228.11 779.773 1231.52 776.843C1231.95 776.412 1232.51 776.067 1233.03 775.723C1227.94 778.007 1226.91 784.126 1228.98 788.866Z" fill="#C18152"/>
<path d="M1218.89 784.122C1218.89 784.122 1218.07 774.771 1226.3 774.254L1218.89 784.122Z" fill="#E1BB9A"/>
<path d="M1218.89 784.123C1218.89 780.244 1220.48 775.719 1224.58 774.642C1225.14 774.47 1225.7 774.383 1226.26 774.297C1220.83 774.125 1218.24 779.253 1218.89 784.123Z" fill="#C18152"/>
<path d="M1057.97 773.004C1057.97 773.004 1055.69 766.238 1061.42 763.48L1057.97 773.004Z" fill="#E1BB9A"/>
<path d="M1057.97 773.004C1057.32 769.945 1057.67 766.325 1060.3 764.299C1060.64 763.998 1061.03 763.782 1061.42 763.48C1060.99 763.696 1060.56 763.868 1060.17 764.127C1057.24 765.98 1056.72 770.031 1057.97 773.004Z" fill="#C18152"/>
<path d="M1066.85 773.436C1066.85 773.436 1061.98 768.825 1066.85 764.473V773.436Z" fill="#E1BB9A"/>
<path d="M1066.85 773.436C1064.96 771.109 1064.09 768.006 1066.08 765.464C1066.29 765.119 1066.59 764.817 1066.85 764.473C1066.55 764.731 1066.16 765.033 1065.9 765.335C1063.53 767.791 1064.4 771.411 1066.85 773.436Z" fill="#C18152"/>
<path d="M874.513 776.237C871.367 772.833 870.936 769.084 874.513 765.766C874.082 766.067 873.694 766.369 873.35 766.757C870.289 769.644 871.453 773.867 874.513 776.237Z" fill="#C18152"/>
<path d="M882.316 776.194C879.514 775.332 877.876 773.307 878.566 770.333C878.652 769.73 878.868 769.127 879.04 768.523C876.971 771.928 878.135 775.677 882.316 776.194Z" fill="#C18152"/>
<path d="M756.273 719.35C756.273 719.35 750.54 707.887 754.506 701.164L756.273 719.35Z" fill="#E1BB9A"/>
<path d="M756.273 719.35C754.161 713.92 751.833 706.723 754.506 701.164C754.075 701.81 753.73 702.543 753.471 703.319C751.963 708.619 753.816 714.566 756.273 719.35Z" fill="#C18152"/>
<path d="M765.369 720.82C765.369 720.82 757.696 714.787 761.446 708.668L765.369 720.82Z" fill="#E1BB9A"/>
<path d="M765.369 720.82C762.179 717.804 759.032 713.064 761.446 708.668C761.101 709.142 760.843 709.659 760.627 710.219C759.162 714.313 762.179 718.493 765.369 720.82Z" fill="#C18152"/>
<path d="M956.933 681.73C956.933 681.73 964.606 686.169 970.554 687.29C970.554 687.29 967.839 686.772 966.459 683.584L956.933 681.73Z" fill="#EDCEB7"/>
<path d="M940.422 678.113C940.422 678.113 947.276 683.328 953.224 684.491C953.224 684.491 946.974 681.518 946.457 679.492L940.422 678.113Z" fill="#EDCEB7"/>
<path d="M849.556 466.306C849.556 466.306 835.589 473.588 838.865 482.207C842.055 490.309 849.211 500.048 864.384 491.343C871.109 487.206 868.307 476.303 868.177 475.915C865.462 469.365 860.117 462.944 849.556 466.306Z" fill="#1B1B2B"/>
<path d="M838.864 482.206C835.588 473.588 849.554 466.305 849.554 466.305C845.89 467.468 841.58 469.795 836.536 473.717C836.536 473.717 837.097 477.681 838.864 482.206Z" fill="white"/>
<path d="M868.177 475.918C868.263 476.306 871.108 487.165 864.384 491.346C866.366 490.182 868.522 488.717 870.806 486.907C870.763 486.907 870.375 481.391 868.177 475.918Z" fill="#1B1B2B"/>
<path d="M901.974 478.241C901.715 478.801 897.318 488.368 903.052 494.013C915.509 505.562 924.044 499.227 928.829 492.419C934.347 482.248 923.527 473.802 923.01 473.414C912.621 466.562 905.853 472.078 901.974 478.241C901.931 478.241 901.931 478.198 901.974 478.241Z" fill="#1B1B2B"/>
<path d="M903.01 493.968C897.276 488.322 901.673 478.799 901.932 478.195C898.914 482.936 897.578 488.021 897.578 488.021C899.475 490.434 901.285 492.373 903.01 493.968Z" fill="#1B1B2B"/>
<path d="M923.009 473.371C923.527 473.759 934.303 482.205 928.829 492.375C931.975 487.937 933.484 483.326 933.484 483.326C929.648 478.672 926.156 475.44 923.009 473.371Z" fill="white"/>
<path d="M882.575 499.789C882.575 499.789 875.42 495.953 876.756 491.17C878.092 486.387 883.394 494.833 883.394 494.833C883.394 494.833 888.007 490.481 889.645 492.635C891.326 494.79 882.575 499.789 882.575 499.789Z" fill="#1B1B2B"/>
<path d="M868.825 498.973C871.196 509.832 882.619 499.662 882.619 499.662C882.619 499.662 891.412 510.048 896.154 501.688" stroke="#1B1B2B" stroke-width="2" stroke-miterlimit="10" stroke-linecap="round"/>
<path d="M842.444 479.581C843.565 480.83 844.987 480.356 846.237 479.236C847.487 478.115 848.048 476.736 846.927 475.487C845.806 474.237 844.384 475.099 843.177 476.219C841.927 477.383 841.323 478.331 842.444 479.581Z" fill="#EDF4FC"/>
<path d="M903.784 486.041C905.077 487.119 906.413 486.472 907.491 485.222C908.568 483.93 908.956 482.508 907.663 481.43C906.37 480.353 905.12 481.387 904.042 482.68C902.965 483.973 902.534 484.964 903.784 486.041Z" fill="#EDF4FC"/>
<path d="M777.18 708.882C778.732 704.185 778.904 699.1 778.56 694.188C778.344 699.014 778.128 704.099 777.18 708.882Z" fill="#B27547"/>
<path d="M951.155 550.859C951.155 550.859 944.258 570.295 924.516 577.621C924.516 577.621 952.621 569.045 972.148 553.359C972.148 553.359 976.286 562.581 965.423 569.519C954.561 576.457 985.381 564.52 986.976 553.66" fill="#D39C76"/>
<path d="M1008.53 553.446C1012.67 558.229 998.443 577.621 998.443 577.621C1014.65 570.295 1017.02 553.359 1017.02 553.359" fill="#D39C76"/>
<path d="M1052.28 554.652L1058.75 555.342L1068.45 556.721L1076.25 558.143L1086.16 560.47C1086.16 560.47 1096.72 578.009 1080.21 589.688C1080.21 589.688 1073.45 562.926 1052.28 554.652Z" fill="#D39C76"/>
<path d="M1095.09 563.055L1098.71 564.261L1102.24 565.511L1106.47 567.106L1112.24 569.476L1117.29 572.191C1117.29 572.191 1142.81 593.436 1122.03 618.344C1122.03 618.344 1132.98 590.419 1095.09 563.055Z" fill="#D39C76"/>
<path d="M1103.67 696.817L1107.59 699.704L1112.46 703.022L1118.28 706.771C1118.28 706.771 1144.83 711.77 1152.07 690.051C1152.07 690.008 1125 708.495 1103.67 696.817Z" fill="#EDCEB7"/>
<path d="M1134.01 715.864L1141.34 719.699L1148.45 723.233L1155.78 726.681C1155.78 726.681 1185.26 726.25 1184.96 690.008C1184.96 690.008 1168.37 725.172 1134.01 715.864Z" fill="#EDCEB7"/>
<path d="M1215.4 748.484L1217.42 749.906L1221.09 753.138L1223.97 756.543L1226.47 760.551C1226.47 760.551 1240.83 767.187 1249.02 753.354C1249.02 753.397 1228.5 759.129 1215.4 748.484Z" fill="#E1BB9A"/>
<path d="M981.029 652.903L984.046 652.343L987.193 651.869L991.331 651.352C991.331 651.352 992.107 661.436 998.271 664.883C998.271 664.883 983.012 656.997 981.029 652.903Z" fill="#E1BB9A"/>
<path d="M1113.06 546.938C1113.06 546.938 1108.84 562.538 1136.17 565.641L1137.8 561.806L1139.49 558.961L1141.51 556.246L1143.84 553.747C1143.84 553.747 1116.38 550.041 1117.03 535.949L1114.74 540.819L1113.49 545.128L1113.06 546.938Z" fill="#D39C76"/>
<path d="M1098.97 620.629C1098.36 621.836 1081.16 633.773 1092.76 651.355L1098.97 620.629Z" fill="#E1BB9A"/>
<path d="M1098.97 620.629C1097.98 621.663 1096.81 622.568 1095.82 623.645C1087.76 631.661 1086.03 641.874 1092.76 651.355C1092.03 650.105 1091.29 648.855 1090.78 647.519L1090.35 646.528C1090.22 646.184 1089.96 645.322 1089.83 644.977C1087.37 637.091 1090.52 629.549 1095.99 623.775C1096.9 622.654 1098.06 621.706 1098.97 620.629Z" fill="#D39C76"/>
<path d="M924.517 596.023C924.517 596.023 931.543 601.367 930.164 614.381L924.517 596.023Z" fill="#E1BB9A"/>
<path d="M924.517 596.023C928.698 600.117 930.207 606.194 930.207 611.925C930.207 612.744 930.164 613.563 930.164 614.425C930.25 613.606 930.379 612.787 930.423 611.925C930.724 606.15 929.172 599.773 924.517 596.023Z" fill="#D39C76"/>
<path d="M1234.1 466.608C1234.1 466.608 1234.15 466.651 1234.19 466.78C1235.22 469.194 1248.33 496.644 1299.67 486.56L1301.91 481.432L1304.02 475.184L1305.96 466.565C1305.96 466.565 1264.15 484.233 1235.09 456.309C1235.09 456.309 1236.69 464.669 1234.15 466.608" fill="#D39C76"/>
<path d="M1190.57 363.055C1193.11 375.768 1201.6 385.119 1211.73 385.119C1217.21 385.119 1222.16 382.404 1226 377.879C1219.92 374.518 1214.84 369.735 1211.43 362.71C1210.96 361.762 1210.87 359.565 1210.4 355.169C1210.4 355.255 1210.14 355.514 1210.09 355.6C1209.96 355.772 1209.83 355.945 1209.71 356.117C1209.27 356.634 1208.8 357.151 1208.41 357.712C1208.2 358.013 1207.98 358.358 1207.77 358.66C1207.68 358.832 1207.55 358.961 1207.42 359.134C1207.33 359.263 1207.16 359.435 1207.12 359.565C1207.38 358.789 1207.64 357.97 1207.9 357.194C1208.11 356.505 1208.37 355.902 1208.28 355.126C1208.2 354.523 1207.85 353.919 1207.64 353.359C1207.29 352.368 1206.95 351.377 1206.65 350.386C1206 348.317 1205.44 346.206 1205.22 344.051C1205.09 342.758 1204.96 340.991 1205.96 340C1199.66 346.507 1192.89 354.049 1190.57 363.055Z" fill="#EDCEB7"/>
<path d="M1279.37 414.077C1280.62 410.414 1281.39 406.708 1281.78 403.088C1278.42 399.597 1275.23 395.891 1272.64 391.582C1273.68 398.649 1274.58 408.69 1279.37 414.077Z" fill="#D39C76"/>
<path d="M1209.96 432.434C1213.2 435.192 1216.65 437.778 1220.27 440.234C1223.71 442.605 1226.43 444.845 1228.59 447.043C1237.9 445.578 1248.72 442.303 1259.23 437.218C1270.14 432.003 1276.26 423.255 1279.41 414.076C1277.64 412.18 1276.26 409.983 1275.1 407.699C1274.06 405.673 1273.2 403.518 1272.34 401.407C1271.52 399.338 1270.96 397.141 1269.45 395.46C1269.11 395.072 1268.67 394.77 1268.24 394.469C1264.15 401.407 1258.2 409.422 1249.06 415.757C1236.22 424.678 1219.49 428.254 1209.96 432.434Z" fill="#D39C76"/>
<path d="M821.838 532.198C814.294 539.395 806.449 545.212 802.095 555.124C796.664 567.578 797.095 583.393 805.414 594.512C814.639 606.837 830.804 609.034 845.201 609.25C881.97 609.767 911.239 587.617 933.999 561.028C944.862 548.358 957.234 534.482 973.269 528.621C985.08 524.312 1001.33 520.046 1011.16 530.647C1016.98 536.895 1016.98 545.385 1016.98 553.4" stroke="#462391" stroke-width="8" stroke-miterlimit="10"/>
<path d="M978.5 685.5C978 689 977.798 697.782 974.192 701.983C969.778 707.071 965.147 707.958 957.935 709.265C951.905 710.385 946.714 709.965 943.108 709.685C940.279 709.452 935.834 709.078 934 709.125" stroke="#462391" stroke-width="8" stroke-miterlimit="10"/>
<path d="M881.367 708.881C876.265 710.271 871.582 708.752 866.797 710.821C860.676 713.492 855.158 719.741 854.986 726.593C854.296 750.941 892.833 749.519 908.696 748.916C928.611 748.14 949.949 748.614 969.303 741.977C991.417 734.393 1004.35 715.69 1013.44 694.876C1025 668.459 1035.13 641.31 1042.02 613.299C1045.56 599.078 1048.23 584.685 1049.87 570.119C1051.25 557.708 1050.13 543.315 1058.49 533.015C1062.2 528.448 1067.02 524.483 1072.33 521.897C1081.9 517.286 1099.14 518.062 1105 528.189C1111.17 538.876 1106.9 555.123 1102.97 565.767" stroke="#462391" stroke-width="8" stroke-miterlimit="10"/>
<path d="M1150.48 599.294C1174.01 585.633 1129.62 531.033 1120.86 518.45C1109.36 501.859 1097.11 474.192 1123.93 465.013C1146.86 457.127 1173.63 472.813 1183.54 493.455" stroke="#462391" stroke-width="8" stroke-miterlimit="10"/>
<path d="M1195.39 537.281C1196.73 561.198 1190.22 584.814 1182.07 607.093C1177.03 620.84 1171.08 633.855 1163.97 646.61C1153.49 665.442 1135.35 679.06 1117.63 690.35C1113.28 693.109 1104.57 697.504 1105.69 703.925C1106.42 708.191 1111.38 712.371 1114.91 714.354C1120.04 717.198 1125.69 717.543 1127.59 717.112C1130.48 716.465 1131.98 715.647 1132.33 714.914" stroke="#462391" stroke-width="8" stroke-miterlimit="10"/>
<path d="M1202.46 682.593C1204.36 679.62 1217.77 670.484 1229.71 672.294C1247.77 675.052 1266.95 692.72 1269.15 711.078C1273.33 745.683 1230.53 761.929 1206.77 776.624C1196.9 782.743 1187.2 789.294 1178.07 796.49C1169.7 803.127 1160.09 809.246 1154.01 818.253C1133.71 848.203 1169.19 862.467 1193.33 863.027C1223.41 863.717 1255.98 856.919 1281.5 840.5C1289 835.675 1297.04 829.845 1304.24 825.191C1312.82 819.675 1321.44 814.116 1330.01 808.6C1346.57 797.912 1361.74 790.285 1380.41 783.864C1400.02 777.098 1424.13 771.947 1444 766" stroke="#462391" stroke-width="8" stroke-miterlimit="10"/>
<path d="M835.027 632.179C825.932 631.101 816.621 629.291 807.483 630.756C799.206 632.092 790.801 634.721 783.645 639.289C775.153 644.719 766.963 653.769 771.532 664.456" stroke="#462391" stroke-width="8" stroke-miterlimit="10"/>
<path d="M774.379 715.65C780.5 719.7 788.561 720.433 792.354 713.15C794.984 708.108 795.156 701.515 794.035 696.042C791.018 681.131 776.879 670.617 763.215 666.006C753.343 662.687 741.877 662.343 731.661 664.066C720.022 666.049 709.418 672.556 701.961 681.606C693.814 691.474 690.193 704.316 685.839 716.124" stroke="#462391" stroke-width="8" stroke-miterlimit="10"/>
<path d="M1193.02 489.582L1174.49 498.287C1174.49 498.287 1193.54 518.326 1188.67 537.718L1209.1 536.253C1209.15 536.253 1220.35 506.302 1193.02 489.582Z" fill="#D39C76"/>
<path d="M245.4 405V366.6H166.2V332.76L235.56 229.8H259.08L187.8 337.32V346.92H245.4V304.2H267V405H245.4ZM362.906 407.4C352.186 407.4 342.826 405.32 334.826 401.16C326.986 396.84 320.906 390.84 316.586 383.16C312.266 375.32 310.106 366.2 310.106 355.8V279C310.106 268.44 312.266 259.32 316.586 251.64C320.906 243.96 326.986 238.04 334.826 233.88C342.826 229.56 352.186 227.4 362.906 227.4C373.786 227.4 383.146 229.56 390.986 233.88C398.826 238.04 404.906 243.96 409.226 251.64C413.546 259.32 415.706 268.44 415.706 279V355.8C415.706 366.2 413.546 375.32 409.226 383.16C404.906 390.84 398.746 396.84 390.746 401.16C382.906 405.32 373.626 407.4 362.906 407.4ZM362.906 388.92C372.506 388.92 380.186 385.88 385.946 379.8C391.866 373.56 394.826 365.56 394.826 355.8V279C394.826 269.24 391.866 261.32 385.946 255.24C380.186 249 372.506 245.88 362.906 245.88C353.306 245.88 345.546 249 339.626 255.24C333.866 261.32 330.986 269.24 330.986 279V355.8C330.986 365.56 333.866 373.56 339.626 379.8C345.546 385.88 353.306 388.92 362.906 388.92ZM362.906 331.56C358.586 331.56 355.066 330.2 352.346 327.48C349.786 324.76 348.506 321.16 348.506 316.68C348.506 312.36 349.786 308.92 352.346 306.36C355.066 303.64 358.586 302.28 362.906 302.28C367.226 302.28 370.666 303.64 373.226 306.36C375.946 308.92 377.306 312.36 377.306 316.68C377.306 321.16 375.946 324.76 373.226 327.48C370.666 330.2 367.226 331.56 362.906 331.56ZM533.213 405V366.6H454.013V332.76L523.373 229.8H546.893L475.613 337.32V346.92H533.213V304.2H554.812V405H533.213Z" fill="#1B1B2B"/>
<path d="M176 490.4C174.24 490.4 172.72 490.067 171.44 489.4C170.187 488.733 169.213 487.773 168.52 486.52C167.853 485.24 167.52 483.733 167.52 482V468.8C167.52 467.04 167.853 465.533 168.52 464.28C169.213 463.027 170.187 462.067 171.44 461.4C172.72 460.733 174.24 460.4 176 460.4C177.76 460.4 179.267 460.733 180.52 461.4C181.8 462.067 182.773 463.027 183.44 464.28C184.133 465.533 184.48 467.027 184.48 468.76V482C184.48 483.733 184.133 485.24 183.44 486.52C182.773 487.773 181.8 488.733 180.52 489.4C179.267 490.067 177.76 490.4 176 490.4ZM176 487.16C177.573 487.16 178.773 486.72 179.6 485.84C180.453 484.933 180.88 483.653 180.88 482V468.8C180.88 467.147 180.453 465.88 179.6 465C178.773 464.093 177.573 463.64 176 463.64C174.453 463.64 173.253 464.093 172.4 465C171.547 465.88 171.12 467.147 171.12 468.8V482C171.12 483.653 171.547 484.933 172.4 485.84C173.253 486.72 174.453 487.16 176 487.16ZM199.984 490.32C198.224 490.32 196.704 489.987 195.424 489.32C194.144 488.653 193.144 487.693 192.424 486.44C191.731 485.16 191.384 483.653 191.384 481.92V476.08C191.384 474.32 191.731 472.813 192.424 471.56C193.144 470.307 194.144 469.347 195.424 468.68C196.704 468.013 198.224 467.68 199.984 467.68C201.744 467.68 203.264 468.013 204.544 468.68C205.824 469.347 206.811 470.307 207.504 471.56C208.224 472.813 208.584 474.307 208.584 476.04V481.92C208.584 483.653 208.224 485.16 207.504 486.44C206.811 487.693 205.824 488.653 204.544 489.32C203.264 489.987 201.744 490.32 199.984 490.32ZM199.984 487.12C201.558 487.12 202.784 486.68 203.664 485.8C204.544 484.92 204.984 483.627 204.984 481.92V476.08C204.984 474.373 204.544 473.08 203.664 472.2C202.784 471.32 201.558 470.88 199.984 470.88C198.438 470.88 197.211 471.32 196.304 472.2C195.424 473.08 194.984 474.373 194.984 476.08V481.92C194.984 483.627 195.424 484.92 196.304 485.8C197.211 486.68 198.438 487.12 199.984 487.12ZM215.649 497.2V468H219.249V472.2H219.969L219.249 473.04C219.249 471.36 219.795 470.04 220.889 469.08C222.009 468.093 223.475 467.6 225.289 467.6C227.502 467.6 229.262 468.333 230.569 469.8C231.902 471.24 232.569 473.227 232.569 475.76V482.2C232.569 483.88 232.262 485.333 231.649 486.56C231.062 487.787 230.222 488.733 229.129 489.4C228.062 490.067 226.782 490.4 225.289 490.4C223.502 490.4 222.049 489.907 220.929 488.92C219.809 487.933 219.249 486.613 219.249 484.96L219.969 485.8H219.169L219.249 490.8V497.2H215.649ZM224.089 487.28C225.609 487.28 226.795 486.827 227.649 485.92C228.529 485.013 228.969 483.707 228.969 482V476C228.969 474.293 228.529 472.987 227.649 472.08C226.795 471.173 225.609 470.72 224.089 470.72C222.622 470.72 221.449 471.187 220.569 472.12C219.689 473.053 219.249 474.347 219.249 476V482C219.249 483.653 219.689 484.947 220.569 485.88C221.449 486.813 222.622 487.28 224.089 487.28ZM247.273 490.32C245.78 490.32 244.473 490.093 243.353 489.64C242.26 489.16 241.38 488.493 240.713 487.64C240.073 486.787 239.686 485.773 239.553 484.6H243.153C243.313 485.373 243.74 485.987 244.433 486.44C245.153 486.893 246.1 487.12 247.273 487.12H248.953C250.366 487.12 251.42 486.84 252.113 486.28C252.806 485.693 253.153 484.92 253.153 483.96C253.153 483.027 252.833 482.293 252.193 481.76C251.58 481.2 250.66 480.827 249.433 480.64L246.473 480.16C244.313 479.787 242.7 479.12 241.633 478.16C240.593 477.173 240.073 475.747 240.073 473.88C240.073 471.907 240.7 470.387 241.953 469.32C243.206 468.227 245.086 467.68 247.593 467.68H249.113C251.22 467.68 252.913 468.173 254.193 469.16C255.473 470.147 256.246 471.48 256.513 473.16H252.913C252.753 472.467 252.353 471.92 251.713 471.52C251.073 471.093 250.206 470.88 249.113 470.88H247.593C246.233 470.88 245.233 471.133 244.593 471.64C243.98 472.147 243.673 472.907 243.673 473.92C243.673 474.827 243.94 475.493 244.473 475.92C245.006 476.347 245.846 476.653 246.993 476.84L249.953 477.32C252.326 477.693 254.046 478.387 255.113 479.4C256.206 480.413 256.753 481.88 256.753 483.8C256.753 485.827 256.1 487.427 254.793 488.6C253.513 489.747 251.566 490.32 248.953 490.32H247.273ZM279.538 490.4C278.951 490.4 278.471 490.2 278.098 489.8C277.724 489.4 277.538 488.867 277.538 488.2V485.4C277.538 484.733 277.724 484.2 278.098 483.8C278.471 483.4 278.951 483.2 279.538 483.2C280.151 483.2 280.631 483.4 280.978 483.8C281.351 484.2 281.538 484.733 281.538 485.4V488.2C281.538 488.867 281.351 489.4 280.978 489.8C280.631 490.2 280.151 490.4 279.538 490.4ZM264.338 490.4C263.751 490.4 263.271 490.2 262.898 489.8C262.524 489.4 262.338 488.867 262.338 488.2V485.4C262.338 484.733 262.524 484.2 262.898 483.8C263.271 483.4 263.751 483.2 264.338 483.2C264.951 483.2 265.431 483.4 265.778 483.8C266.151 484.2 266.338 484.733 266.338 485.4V488.2C266.338 488.867 266.151 489.4 265.778 489.8C265.431 490.2 264.951 490.4 264.338 490.4ZM271.938 490.4C271.351 490.4 270.871 490.2 270.497 489.8C270.124 489.4 269.938 488.867 269.938 488.2V485.4C269.938 484.733 270.124 484.2 270.497 483.8C270.871 483.4 271.351 483.2 271.938 483.2C272.551 483.2 273.031 483.4 273.378 483.8C273.751 484.2 273.938 484.733 273.938 485.4V488.2C273.938 488.867 273.751 489.4 273.378 489.8C273.031 490.2 272.551 490.4 271.938 490.4ZM288.122 490V486.72H294.082V464.08H288.122V460.8H303.722V464.08H297.762V486.72H303.722V490H288.122ZM322.306 490C320.413 490 318.933 489.493 317.866 488.48C316.826 487.467 316.306 486.04 316.306 484.2V471.28H310.106V468H316.306V461.8H319.906V468H328.706V471.28H319.906V484.2C319.906 485.88 320.706 486.72 322.306 486.72H328.306V490H322.306ZM367.195 490.32C365.702 490.32 364.395 490.093 363.275 489.64C362.182 489.16 361.302 488.493 360.635 487.64C359.995 486.787 359.608 485.773 359.475 484.6H363.075C363.235 485.373 363.662 485.987 364.355 486.44C365.075 486.893 366.022 487.12 367.195 487.12H368.875C370.288 487.12 371.342 486.84 372.035 486.28C372.728 485.693 373.075 484.92 373.075 483.96C373.075 483.027 372.755 482.293 372.115 481.76C371.502 481.2 370.582 480.827 369.355 480.64L366.395 480.16C364.235 479.787 362.622 479.12 361.555 478.16C360.515 477.173 359.995 475.747 359.995 473.88C359.995 471.907 360.622 470.387 361.875 469.32C363.128 468.227 365.008 467.68 367.515 467.68H369.035C371.142 467.68 372.835 468.173 374.115 469.16C375.395 470.147 376.168 471.48 376.435 473.16H372.835C372.675 472.467 372.275 471.92 371.635 471.52C370.995 471.093 370.128 470.88 369.035 470.88H367.515C366.155 470.88 365.155 471.133 364.515 471.64C363.902 472.147 363.595 472.907 363.595 473.92C363.595 474.827 363.862 475.493 364.395 475.92C364.928 476.347 365.768 476.653 366.915 476.84L369.875 477.32C372.248 477.693 373.968 478.387 375.035 479.4C376.128 480.413 376.675 481.88 376.675 483.8C376.675 485.827 376.022 487.427 374.715 488.6C373.435 489.747 371.488 490.32 368.875 490.32H367.195ZM391.859 490.4C390.126 490.4 388.606 490.053 387.299 489.36C386.019 488.667 385.019 487.693 384.299 486.44C383.606 485.16 383.259 483.68 383.259 482V476C383.259 474.293 383.606 472.813 384.299 471.56C385.019 470.307 386.019 469.333 387.299 468.64C388.606 467.947 390.126 467.6 391.859 467.6C393.593 467.6 395.099 467.947 396.379 468.64C397.686 469.333 398.686 470.307 399.379 471.56C400.099 472.813 400.459 474.293 400.459 476V479.88H386.779V482C386.779 483.733 387.219 485.067 388.099 486C388.979 486.907 390.233 487.36 391.859 487.36C393.246 487.36 394.366 487.12 395.219 486.64C396.073 486.133 396.593 485.387 396.779 484.4H400.379C400.139 486.24 399.233 487.707 397.659 488.8C396.113 489.867 394.179 490.4 391.859 490.4ZM396.939 477.48V476C396.939 474.267 396.499 472.933 395.619 472C394.766 471.067 393.513 470.6 391.859 470.6C390.233 470.6 388.979 471.067 388.099 472C387.219 472.933 386.779 474.267 386.779 476V477.16H397.219L396.939 477.48ZM415.844 490.4C414.11 490.4 412.59 490.053 411.284 489.36C410.004 488.667 409.004 487.693 408.284 486.44C407.59 485.16 407.244 483.68 407.244 482V476C407.244 474.293 407.59 472.813 408.284 471.56C409.004 470.307 410.004 469.333 411.284 468.64C412.59 467.947 414.11 467.6 415.844 467.6C417.577 467.6 419.084 467.947 420.364 468.64C421.67 469.333 422.67 470.307 423.364 471.56C424.084 472.813 424.444 474.293 424.444 476V479.88H410.764V482C410.764 483.733 411.204 485.067 412.084 486C412.964 486.907 414.217 487.36 415.844 487.36C417.23 487.36 418.35 487.12 419.204 486.64C420.057 486.133 420.577 485.387 420.764 484.4H424.364C424.124 486.24 423.217 487.707 421.644 488.8C420.097 489.867 418.164 490.4 415.844 490.4ZM420.924 477.48V476C420.924 474.267 420.484 472.933 419.604 472C418.75 471.067 417.497 470.6 415.844 470.6C414.217 470.6 412.964 471.067 412.084 472C411.204 472.933 410.764 474.267 410.764 476V477.16H421.204L420.924 477.48ZM430.468 490V468H433.628V470.64H434.348L433.788 471.6C433.788 470.373 434.108 469.4 434.748 468.68C435.415 467.96 436.308 467.6 437.428 467.6C438.655 467.6 439.601 468.053 440.268 468.96C440.935 469.867 441.268 471.147 441.268 472.8L440.188 470.64H441.868L441.108 471.6C441.108 470.373 441.441 469.4 442.108 468.68C442.801 467.96 443.708 467.6 444.828 467.6C446.215 467.6 447.281 468.12 448.028 469.16C448.801 470.2 449.188 471.573 449.188 473.28V490H445.868V473.24C445.868 472.333 445.668 471.627 445.268 471.12C444.895 470.613 444.335 470.36 443.588 470.36C442.868 470.36 442.295 470.613 441.868 471.12C441.468 471.6 441.268 472.293 441.268 473.2V490H438.388V473.24C438.388 472.307 438.175 471.6 437.748 471.12C437.348 470.613 436.775 470.36 436.028 470.36C435.281 470.36 434.721 470.613 434.348 471.12C433.975 471.6 433.788 472.293 433.788 473.2V490H430.468ZM463.133 490.32C461.639 490.32 460.333 490.093 459.213 489.64C458.119 489.16 457.239 488.493 456.573 487.64C455.933 486.787 455.546 485.773 455.413 484.6H459.013C459.173 485.373 459.599 485.987 460.293 486.44C461.013 486.893 461.959 487.12 463.133 487.12H464.813C466.226 487.12 467.279 486.84 467.973 486.28C468.666 485.693 469.013 484.92 469.013 483.96C469.013 483.027 468.693 482.293 468.053 481.76C467.439 481.2 466.519 480.827 465.293 480.64L462.333 480.16C460.173 479.787 458.559 479.12 457.493 478.16C456.453 477.173 455.933 475.747 455.933 473.88C455.933 471.907 456.559 470.387 457.813 469.32C459.066 468.227 460.946 467.68 463.453 467.68H464.973C467.079 467.68 468.773 468.173 470.053 469.16C471.333 470.147 472.106 471.48 472.372 473.16H468.773C468.613 472.467 468.213 471.92 467.573 471.52C466.933 471.093 466.066 470.88 464.973 470.88H463.453C462.093 470.88 461.093 471.133 460.453 471.64C459.839 472.147 459.533 472.907 459.533 473.92C459.533 474.827 459.799 475.493 460.333 475.92C460.866 476.347 461.706 476.653 462.853 476.84L465.813 477.32C468.186 477.693 469.906 478.387 470.973 479.4C472.066 480.413 472.613 481.88 472.613 483.8C472.613 485.827 471.959 487.427 470.653 488.6C469.373 489.747 467.426 490.32 464.813 490.32H463.133ZM168.92 543L165.4 521H168.6L170.8 536.6C170.88 537.187 170.96 537.827 171.04 538.52C171.147 539.187 171.227 539.747 171.28 540.2C171.333 539.747 171.413 539.187 171.52 538.52C171.653 537.827 171.76 537.187 171.84 536.6L174.28 521H177.72L180.16 536.6C180.24 537.187 180.333 537.827 180.44 538.52C180.573 539.187 180.667 539.747 180.72 540.2C180.773 539.747 180.853 539.187 180.96 538.52C181.093 537.827 181.2 537.187 181.28 536.6L183.56 521H186.6L182.92 543H178.96L176.6 527.8C176.493 527.053 176.373 526.307 176.24 525.56C176.107 524.813 176.013 524.227 175.96 523.8C175.907 524.227 175.827 524.813 175.72 525.56C175.613 526.307 175.493 527.053 175.36 527.8L172.88 543H168.92ZM199.984 543.4C198.251 543.4 196.731 543.053 195.424 542.36C194.144 541.667 193.144 540.693 192.424 539.44C191.731 538.16 191.384 536.68 191.384 535V529C191.384 527.293 191.731 525.813 192.424 524.56C193.144 523.307 194.144 522.333 195.424 521.64C196.731 520.947 198.251 520.6 199.984 520.6C201.718 520.6 203.224 520.947 204.504 521.64C205.811 522.333 206.811 523.307 207.504 524.56C208.224 525.813 208.584 527.293 208.584 529V532.88H194.904V535C194.904 536.733 195.344 538.067 196.224 539C197.104 539.907 198.358 540.36 199.984 540.36C201.371 540.36 202.491 540.12 203.344 539.64C204.198 539.133 204.718 538.387 204.904 537.4H208.504C208.264 539.24 207.358 540.707 205.784 541.8C204.238 542.867 202.304 543.4 199.984 543.4ZM205.064 530.48V529C205.064 527.267 204.624 525.933 203.744 525C202.891 524.067 201.638 523.6 199.984 523.6C198.358 523.6 197.104 524.067 196.224 525C195.344 525.933 194.904 527.267 194.904 529V530.16H205.344L205.064 530.48ZM248.113 543.4C246.353 543.4 244.806 543.067 243.473 542.4C242.166 541.733 241.153 540.773 240.433 539.52C239.713 538.24 239.353 536.733 239.353 535V529C239.353 527.24 239.713 525.733 240.433 524.48C241.153 523.227 242.166 522.267 243.473 521.6C244.806 520.933 246.353 520.6 248.113 520.6C250.646 520.6 252.686 521.28 254.233 522.64C255.78 524 256.593 525.853 256.673 528.2H253.073C252.993 526.787 252.513 525.707 251.633 524.96C250.78 524.187 249.606 523.8 248.113 523.8C246.54 523.8 245.286 524.253 244.353 525.16C243.42 526.04 242.953 527.307 242.953 528.96V535C242.953 536.653 243.42 537.933 244.353 538.84C245.286 539.747 246.54 540.2 248.113 540.2C249.606 540.2 250.78 539.813 251.633 539.04C252.513 538.267 252.993 537.187 253.073 535.8H256.673C256.593 538.147 255.78 540 254.233 541.36C252.686 542.72 250.646 543.4 248.113 543.4ZM270.018 543.4C267.698 543.4 265.871 542.813 264.538 541.64C263.204 540.44 262.538 538.827 262.538 536.8C262.538 534.747 263.204 533.133 264.538 531.96C265.871 530.787 267.671 530.2 269.938 530.2H276.738V528C276.738 526.64 276.324 525.6 275.498 524.88C274.698 524.133 273.551 523.76 272.058 523.76C270.751 523.76 269.658 524.04 268.778 524.6C267.898 525.133 267.391 525.867 267.258 526.8H263.658C263.898 524.907 264.791 523.4 266.338 522.28C267.884 521.16 269.818 520.6 272.138 520.6C274.671 520.6 276.671 521.253 278.138 522.56C279.604 523.867 280.338 525.64 280.338 527.88V543H276.818V538.8H276.218L276.818 538.2C276.818 539.8 276.191 541.067 274.938 542C273.711 542.933 272.071 543.4 270.018 543.4ZM270.898 540.56C272.604 540.56 274.004 540.133 275.098 539.28C276.191 538.427 276.738 537.333 276.738 536V532.88H270.018C268.818 532.88 267.871 533.213 267.178 533.88C266.484 534.547 266.138 535.453 266.138 536.6C266.138 537.827 266.551 538.8 267.378 539.52C268.231 540.213 269.404 540.56 270.898 540.56ZM287.602 543V521H291.202V525.2H291.962L291.202 526.04C291.202 524.307 291.722 522.973 292.762 522.04C293.802 521.08 295.242 520.6 297.082 520.6C299.295 520.6 301.055 521.28 302.362 522.64C303.669 524 304.322 525.853 304.322 528.2V543H300.722V528.6C300.722 527.027 300.295 525.827 299.442 525C298.615 524.147 297.482 523.72 296.042 523.72C294.549 523.72 293.362 524.173 292.482 525.08C291.629 525.987 291.202 527.293 291.202 529V543H287.602ZM318.226 525.8L317.746 519.8V513.8H321.626V519.8L321.186 525.8H318.226ZM346.291 543C344.397 543 342.917 542.493 341.851 541.48C340.811 540.467 340.291 539.04 340.291 537.2V524.28H334.091V521H340.291V514.8H343.891V521H352.691V524.28H343.891V537.2C343.891 538.88 344.691 539.72 346.291 539.72H352.291V543H346.291ZM388.659 543V526.48H382.259V523.2H388.659V519.4C388.659 517.667 389.206 516.307 390.299 515.32C391.393 514.307 392.899 513.8 394.819 513.8H401.259V517.08H394.819C393.993 517.08 393.353 517.28 392.899 517.68C392.473 518.053 392.259 518.627 392.259 519.4V523.2H401.259V526.48H392.259V543H388.659ZM407.244 543V539.72H415.044V524.28H408.244V521H418.644V539.72H426.044V543H407.244ZM416.444 517.04C415.564 517.04 414.87 516.813 414.364 516.36C413.857 515.907 413.604 515.293 413.604 514.52C413.604 513.72 413.857 513.093 414.364 512.64C414.87 512.16 415.564 511.92 416.444 511.92C417.324 511.92 418.017 512.16 418.524 512.64C419.03 513.093 419.284 513.72 419.284 514.52C419.284 515.293 419.03 515.907 418.524 516.36C418.017 516.813 417.324 517.04 416.444 517.04ZM431.508 543V521H435.108V525.2H435.868L435.108 526.04C435.108 524.307 435.628 522.973 436.668 522.04C437.708 521.08 439.148 520.6 440.988 520.6C443.201 520.6 444.961 521.28 446.268 522.64C447.575 524 448.228 525.853 448.228 528.2V543H444.628V528.6C444.628 527.027 444.201 525.827 443.348 525C442.521 524.147 441.388 523.72 439.948 523.72C438.455 523.72 437.268 524.173 436.388 525.08C435.535 525.987 435.108 527.293 435.108 529V543H431.508ZM462.533 543.4C460.346 543.4 458.573 542.667 457.213 541.2C455.879 539.733 455.213 537.747 455.213 535.24V528.8C455.213 526.267 455.879 524.267 457.213 522.8C458.546 521.333 460.319 520.6 462.533 520.6C464.346 520.6 465.799 521.093 466.893 522.08C467.986 523.067 468.533 524.387 468.533 526.04L467.813 525.2H468.613L468.533 520.2V513.8H472.133V543H468.533V538.8H467.813L468.533 537.96C468.533 539.64 467.986 540.973 466.893 541.96C465.799 542.92 464.346 543.4 462.533 543.4ZM463.733 540.28C465.226 540.28 466.399 539.813 467.253 538.88C468.106 537.947 468.533 536.653 468.533 535V529C468.533 527.347 468.106 526.053 467.253 525.12C466.399 524.187 465.226 523.72 463.733 523.72C462.213 523.72 461.013 524.173 460.133 525.08C459.253 525.987 458.813 527.293 458.813 529V535C458.813 536.707 459.253 538.013 460.133 538.92C461.013 539.827 462.213 540.28 463.733 540.28ZM514.181 543C512.288 543 510.808 542.493 509.741 541.48C508.701 540.467 508.181 539.04 508.181 537.2V524.28H501.981V521H508.181V514.8H511.781V521H520.581V524.28H511.781V537.2C511.781 538.88 512.581 539.72 514.181 539.72H520.181V543H514.181ZM527.446 543V513.8H531.046V521V525.2H531.806L531.046 526.04C531.046 524.307 531.566 522.973 532.606 522.04C533.646 521.08 535.086 520.6 536.926 520.6C539.139 520.6 540.899 521.28 542.206 522.64C543.512 524 544.166 525.853 544.166 528.2V543H540.566V528.6C540.566 527.027 540.139 525.813 539.286 524.96C538.459 524.08 537.326 523.64 535.886 523.64C534.392 523.64 533.206 524.107 532.326 525.04C531.472 525.973 531.046 527.293 531.046 529V543H527.446ZM559.75 543.4C558.017 543.4 556.497 543.053 555.19 542.36C553.91 541.667 552.91 540.693 552.19 539.44C551.497 538.16 551.15 536.68 551.15 535V529C551.15 527.293 551.497 525.813 552.19 524.56C552.91 523.307 553.91 522.333 555.19 521.64C556.497 520.947 558.017 520.6 559.75 520.6C561.483 520.6 562.99 520.947 564.27 521.64C565.577 522.333 566.577 523.307 567.27 524.56C567.99 525.813 568.35 527.293 568.35 529V532.88H554.67V535C554.67 536.733 555.11 538.067 555.99 539C556.87 539.907 558.123 540.36 559.75 540.36C561.137 540.36 562.257 540.12 563.11 539.64C563.963 539.133 564.483 538.387 564.67 537.4H568.27C568.03 539.24 567.123 540.707 565.55 541.8C564.003 542.867 562.07 543.4 559.75 543.4ZM564.83 530.48V529C564.83 527.267 564.39 525.933 563.51 525C562.657 524.067 561.403 523.6 559.75 523.6C558.123 523.6 556.87 524.067 555.99 525C555.11 525.933 554.67 527.267 554.67 529V530.16H565.11L564.83 530.48ZM599.399 550.2V521H602.999V525.2H603.719L602.999 526.04C602.999 524.36 603.545 523.04 604.639 522.08C605.759 521.093 607.225 520.6 609.039 520.6C611.252 520.6 613.012 521.333 614.319 522.8C615.652 524.24 616.319 526.227 616.319 528.76V535.2C616.319 536.88 616.012 538.333 615.399 539.56C614.812 540.787 613.972 541.733 612.879 542.4C611.812 543.067 610.532 543.4 609.039 543.4C607.252 543.4 605.799 542.907 604.679 541.92C603.559 540.933 602.999 539.613 602.999 537.96L603.719 538.8H602.919L602.999 543.8V550.2H599.399ZM607.839 540.28C609.359 540.28 610.545 539.827 611.399 538.92C612.279 538.013 612.719 536.707 612.719 535V529C612.719 527.293 612.279 525.987 611.399 525.08C610.545 524.173 609.359 523.72 607.839 523.72C606.372 523.72 605.199 524.187 604.319 525.12C603.439 526.053 602.999 527.347 602.999 529V535C602.999 536.653 603.439 537.947 604.319 538.88C605.199 539.813 606.372 540.28 607.839 540.28ZM629.783 543.4C627.463 543.4 625.636 542.813 624.303 541.64C622.97 540.44 622.303 538.827 622.303 536.8C622.303 534.747 622.97 533.133 624.303 531.96C625.636 530.787 627.436 530.2 629.703 530.2H636.503V528C636.503 526.64 636.09 525.6 635.263 524.88C634.463 524.133 633.316 523.76 631.823 523.76C630.516 523.76 629.423 524.04 628.543 524.6C627.663 525.133 627.156 525.867 627.023 526.8H623.423C623.663 524.907 624.556 523.4 626.103 522.28C627.65 521.16 629.583 520.6 631.903 520.6C634.436 520.6 636.436 521.253 637.903 522.56C639.37 523.867 640.103 525.64 640.103 527.88V543H636.583V538.8H635.983L636.583 538.2C636.583 539.8 635.956 541.067 634.703 542C633.476 542.933 631.836 543.4 629.783 543.4ZM630.663 540.56C632.37 540.56 633.77 540.133 634.863 539.28C635.956 538.427 636.503 537.333 636.503 536V532.88H629.783C628.583 532.88 627.636 533.213 626.943 533.88C626.25 534.547 625.903 535.453 625.903 536.6C625.903 537.827 626.316 538.8 627.143 539.52C627.996 540.213 629.17 540.56 630.663 540.56ZM650.128 550.2V546.92H657.128C658.248 546.92 659.061 546.667 659.568 546.16C660.101 545.653 660.368 544.867 660.368 543.8V541L660.448 537H659.728L660.408 536.4C660.408 538 659.874 539.267 658.808 540.2C657.741 541.133 656.314 541.6 654.528 541.6C652.261 541.6 650.474 540.867 649.168 539.4C647.861 537.907 647.208 535.907 647.208 533.4V528.76C647.208 526.253 647.861 524.267 649.168 522.8C650.474 521.333 652.261 520.6 654.528 520.6C656.314 520.6 657.741 521.067 658.808 522C659.874 522.933 660.408 524.2 660.408 525.8L659.728 525.2H660.408V521H663.968V543.8C663.968 545.773 663.354 547.333 662.128 548.48C660.928 549.627 659.248 550.2 657.088 550.2H650.128ZM655.608 538.48C657.101 538.48 658.274 538.013 659.128 537.08C659.981 536.147 660.408 534.853 660.408 533.2V529C660.408 527.347 659.981 526.053 659.128 525.12C658.274 524.187 657.101 523.72 655.608 523.72C654.088 523.72 652.901 524.173 652.048 525.08C651.221 525.987 650.808 527.293 650.808 529V533.2C650.808 534.907 651.221 536.213 652.048 537.12C652.901 538.027 654.088 538.48 655.608 538.48ZM679.672 543.4C677.939 543.4 676.419 543.053 675.112 542.36C673.832 541.667 672.832 540.693 672.112 539.44C671.419 538.16 671.072 536.68 671.072 535V529C671.072 527.293 671.419 525.813 672.112 524.56C672.832 523.307 673.832 522.333 675.112 521.64C676.419 520.947 677.939 520.6 679.672 520.6C681.405 520.6 682.912 520.947 684.192 521.64C685.499 522.333 686.499 523.307 687.192 524.56C687.912 525.813 688.272 527.293 688.272 529V532.88H674.592V535C674.592 536.733 675.032 538.067 675.912 539C676.792 539.907 678.045 540.36 679.672 540.36C681.059 540.36 682.179 540.12 683.032 539.64C683.885 539.133 684.405 538.387 684.592 537.4H688.192C687.952 539.24 687.045 540.707 685.472 541.8C683.925 542.867 681.992 543.4 679.672 543.4ZM684.752 530.48V529C684.752 527.267 684.312 525.933 683.432 525C682.579 524.067 681.325 523.6 679.672 523.6C678.045 523.6 676.792 524.067 675.912 525C675.032 525.933 674.592 527.267 674.592 529V530.16H685.032L684.752 530.48ZM171.12 603.2L174.36 594.64L166.2 574H170.2L175.32 587.6C175.507 588.053 175.68 588.6 175.84 589.24C176 589.853 176.133 590.373 176.24 590.8C176.347 590.373 176.48 589.853 176.64 589.24C176.8 588.6 176.96 588.053 177.12 587.6L181.92 574H185.8L174.96 603.2H171.12ZM199.984 596.32C198.224 596.32 196.704 595.987 195.424 595.32C194.144 594.653 193.144 593.693 192.424 592.44C191.731 591.16 191.384 589.653 191.384 587.92V582.08C191.384 580.32 191.731 578.813 192.424 577.56C193.144 576.307 194.144 575.347 195.424 574.68C196.704 574.013 198.224 573.68 199.984 573.68C201.744 573.68 203.264 574.013 204.544 574.68C205.824 575.347 206.811 576.307 207.504 577.56C208.224 578.813 208.584 580.307 208.584 582.04V587.92C208.584 589.653 208.224 591.16 207.504 592.44C206.811 593.693 205.824 594.653 204.544 595.32C203.264 595.987 201.744 596.32 199.984 596.32ZM199.984 593.12C201.558 593.12 202.784 592.68 203.664 591.8C204.544 590.92 204.984 589.627 204.984 587.92V582.08C204.984 580.373 204.544 579.08 203.664 578.2C202.784 577.32 201.558 576.88 199.984 576.88C198.438 576.88 197.211 577.32 196.304 578.2C195.424 579.08 194.984 580.373 194.984 582.08V587.92C194.984 589.627 195.424 590.92 196.304 591.8C197.211 592.68 198.438 593.12 199.984 593.12ZM223.929 596.4C221.395 596.4 219.369 595.653 217.849 594.16C216.329 592.64 215.569 590.587 215.569 588V574H219.169V588C219.169 589.653 219.595 590.947 220.449 591.88C221.302 592.787 222.462 593.24 223.929 593.24C225.422 593.24 226.595 592.787 227.449 591.88C228.329 590.947 228.769 589.653 228.769 588V574H232.369V588C232.369 590.587 231.595 592.64 230.049 594.16C228.502 595.653 226.462 596.4 223.929 596.4ZM246.273 578.8L245.793 572.8V566.8H249.673V572.8L249.233 578.8H246.273ZM264.378 596V574H267.898V578.2H268.738L267.578 580.8C267.578 578.427 268.084 576.64 269.098 575.44C270.138 574.213 271.671 573.6 273.698 573.6C276.018 573.6 277.858 574.333 279.218 575.8C280.604 577.24 281.298 579.2 281.298 581.68V583H277.698V582C277.698 580.267 277.271 578.947 276.418 578.04C275.591 577.107 274.404 576.64 272.858 576.64C271.338 576.64 270.138 577.107 269.258 578.04C268.404 578.973 267.978 580.293 267.978 582V596H264.378ZM295.922 596.4C294.189 596.4 292.669 596.053 291.362 595.36C290.082 594.667 289.082 593.693 288.362 592.44C287.669 591.16 287.322 589.68 287.322 588V582C287.322 580.293 287.669 578.813 288.362 577.56C289.082 576.307 290.082 575.333 291.362 574.64C292.669 573.947 294.189 573.6 295.922 573.6C297.655 573.6 299.162 573.947 300.442 574.64C301.749 575.333 302.749 576.307 303.442 577.56C304.162 578.813 304.522 580.293 304.522 582V585.88H290.842V588C290.842 589.733 291.282 591.067 292.162 592C293.042 592.907 294.295 593.36 295.922 593.36C297.309 593.36 298.429 593.12 299.282 592.64C300.135 592.133 300.655 591.387 300.842 590.4H304.442C304.202 592.24 303.295 593.707 301.722 594.8C300.175 595.867 298.242 596.4 295.922 596.4ZM301.002 583.48V582C301.002 580.267 300.562 578.933 299.682 578C298.829 577.067 297.575 576.6 295.922 576.6C294.295 576.6 293.042 577.067 292.162 578C291.282 578.933 290.842 580.267 290.842 582V583.16H301.282L301.002 583.48ZM346.891 596C345.611 596 344.491 595.747 343.531 595.24C342.571 594.733 341.824 594.013 341.291 593.08C340.757 592.147 340.491 591.053 340.491 589.8V570.08H333.091V566.8H344.091V589.8C344.091 590.707 344.344 591.427 344.851 591.96C345.357 592.467 346.037 592.72 346.891 592.72H353.891V596H346.891ZM367.875 596.32C366.115 596.32 364.595 595.987 363.315 595.32C362.035 594.653 361.035 593.693 360.315 592.44C359.622 591.16 359.275 589.653 359.275 587.92V582.08C359.275 580.32 359.622 578.813 360.315 577.56C361.035 576.307 362.035 575.347 363.315 574.68C364.595 574.013 366.115 573.68 367.875 573.68C369.635 573.68 371.155 574.013 372.435 574.68C373.715 575.347 374.702 576.307 375.395 577.56C376.115 578.813 376.475 580.307 376.475 582.04V587.92C376.475 589.653 376.115 591.16 375.395 592.44C374.702 593.693 373.715 594.653 372.435 595.32C371.155 595.987 369.635 596.32 367.875 596.32ZM367.875 593.12C369.448 593.12 370.675 592.68 371.555 591.8C372.435 590.92 372.875 589.627 372.875 587.92V582.08C372.875 580.373 372.435 579.08 371.555 578.2C370.675 577.32 369.448 576.88 367.875 576.88C366.328 576.88 365.102 577.32 364.195 578.2C363.315 579.08 362.875 580.373 362.875 582.08V587.92C362.875 589.627 363.315 590.92 364.195 591.8C365.102 592.68 366.328 593.12 367.875 593.12ZM391.859 596.32C390.099 596.32 388.579 595.987 387.299 595.32C386.019 594.653 385.019 593.693 384.299 592.44C383.606 591.16 383.259 589.653 383.259 587.92V582.08C383.259 580.32 383.606 578.813 384.299 577.56C385.019 576.307 386.019 575.347 387.299 574.68C388.579 574.013 390.099 573.68 391.859 573.68C393.619 573.68 395.139 574.013 396.419 574.68C397.699 575.347 398.686 576.307 399.379 577.56C400.099 578.813 400.459 580.307 400.459 582.04V587.92C400.459 589.653 400.099 591.16 399.379 592.44C398.686 593.693 397.699 594.653 396.419 595.32C395.139 595.987 393.619 596.32 391.859 596.32ZM391.859 593.12C393.433 593.12 394.659 592.68 395.539 591.8C396.419 590.92 396.859 589.627 396.859 587.92V582.08C396.859 580.373 396.419 579.08 395.539 578.2C394.659 577.32 393.433 576.88 391.859 576.88C390.313 576.88 389.086 577.32 388.179 578.2C387.299 579.08 386.859 580.373 386.859 582.08V587.92C386.859 589.627 387.299 590.92 388.179 591.8C389.086 592.68 390.313 593.12 391.859 593.12ZM407.644 596V566.8H411.244V583.08H415.484L421.884 574H426.004L418.604 584.48L426.124 596H421.924L415.524 586.2H411.244V596H407.644ZM431.228 596V592.72H439.028V577.28H432.228V574H442.628V592.72H450.028V596H431.228ZM440.428 570.04C439.548 570.04 438.855 569.813 438.348 569.36C437.841 568.907 437.588 568.293 437.588 567.52C437.588 566.72 437.841 566.093 438.348 565.64C438.855 565.16 439.548 564.92 440.428 564.92C441.308 564.92 442.001 565.16 442.508 565.64C443.015 566.093 443.268 566.72 443.268 567.52C443.268 568.293 443.015 568.907 442.508 569.36C442.001 569.813 441.308 570.04 440.428 570.04ZM455.493 596V574H459.093V578.2H459.853L459.093 579.04C459.093 577.307 459.613 575.973 460.653 575.04C461.693 574.08 463.133 573.6 464.973 573.6C467.186 573.6 468.946 574.28 470.253 575.64C471.559 577 472.213 578.853 472.213 581.2V596H468.613V581.6C468.613 580.027 468.186 578.827 467.333 578C466.506 577.147 465.373 576.72 463.933 576.72C462.439 576.72 461.253 577.173 460.373 578.08C459.519 578.987 459.093 580.293 459.093 582V596H455.493ZM482.237 603.2V599.92H489.237C490.357 599.92 491.17 599.667 491.677 599.16C492.21 598.653 492.477 597.867 492.477 596.8V594L492.557 590H491.837L492.517 589.4C492.517 591 491.984 592.267 490.917 593.2C489.85 594.133 488.424 594.6 486.637 594.6C484.37 594.6 482.584 593.867 481.277 592.4C479.97 590.907 479.317 588.907 479.317 586.4V581.76C479.317 579.253 479.97 577.267 481.277 575.8C482.584 574.333 484.37 573.6 486.637 573.6C488.424 573.6 489.85 574.067 490.917 575C491.984 575.933 492.517 577.2 492.517 578.8L491.837 578.2H492.517V574H496.077V596.8C496.077 598.773 495.464 600.333 494.237 601.48C493.037 602.627 491.357 603.2 489.197 603.2H482.237ZM487.717 591.48C489.21 591.48 490.384 591.013 491.237 590.08C492.09 589.147 492.517 587.853 492.517 586.2V582C492.517 580.347 492.09 579.053 491.237 578.12C490.384 577.187 489.21 576.72 487.717 576.72C486.197 576.72 485.01 577.173 484.157 578.08C483.33 578.987 482.917 580.293 482.917 582V586.2C482.917 587.907 483.33 589.213 484.157 590.12C485.01 591.027 486.197 591.48 487.717 591.48ZM532.566 596V579.48H526.166V576.2H532.566V572.4C532.566 570.667 533.112 569.307 534.206 568.32C535.299 567.307 536.806 566.8 538.726 566.8H545.166V570.08H538.726C537.899 570.08 537.259 570.28 536.806 570.68C536.379 571.053 536.166 571.627 536.166 572.4V576.2H545.166V579.48H536.166V596H532.566ZM559.75 596.32C557.99 596.32 556.47 595.987 555.19 595.32C553.91 594.653 552.91 593.693 552.19 592.44C551.497 591.16 551.15 589.653 551.15 587.92V582.08C551.15 580.32 551.497 578.813 552.19 577.56C552.91 576.307 553.91 575.347 555.19 574.68C556.47 574.013 557.99 573.68 559.75 573.68C561.51 573.68 563.03 574.013 564.31 574.68C565.59 575.347 566.577 576.307 567.27 577.56C567.99 578.813 568.35 580.307 568.35 582.04V587.92C568.35 589.653 567.99 591.16 567.27 592.44C566.577 593.693 565.59 594.653 564.31 595.32C563.03 595.987 561.51 596.32 559.75 596.32ZM559.75 593.12C561.323 593.12 562.55 592.68 563.43 591.8C564.31 590.92 564.75 589.627 564.75 587.92V582.08C564.75 580.373 564.31 579.08 563.43 578.2C562.55 577.32 561.323 576.88 559.75 576.88C558.203 576.88 556.977 577.32 556.07 578.2C555.19 579.08 554.75 580.373 554.75 582.08V587.92C554.75 589.627 555.19 590.92 556.07 591.8C556.977 592.68 558.203 593.12 559.75 593.12ZM576.174 596V574H579.694V578.2H580.534L579.374 580.8C579.374 578.427 579.881 576.64 580.894 575.44C581.934 574.213 583.468 573.6 585.494 573.6C587.814 573.6 589.654 574.333 591.014 575.8C592.401 577.24 593.094 579.2 593.094 581.68V583H589.494V582C589.494 580.267 589.068 578.947 588.214 578.04C587.388 577.107 586.201 576.64 584.654 576.64C583.134 576.64 581.934 577.107 581.054 578.04C580.201 578.973 579.774 580.293 579.774 582V596H576.174Z" fill="#1B1B2B"/>
</g>
<rect x="0.5" y="0.5" width="1439" height="1023" stroke="black"/>
<defs>
<radialGradient id="paint0_radial_666_6241" cx="0" cy="0" r="1" gradientUnits="userSpaceOnUse" gradientTransform="translate(-0.000132212 1024) rotate(-43.9315) scale(1308 1177.92)">
<stop offset="0.346875" stop-color="#F5ECF3"/>
<stop offset="0.720154" stop-color="#EDF3F8"/>
<stop offset="1" stop-color="#F8F8F8"/>
</radialGradient>
<clipPath id="clip0_666_6241">
<rect width="1440" height="1024" fill="white"/>
</clipPath>
</defs>
</svg>
