<svg width="24" height="28" viewBox="0 0 24 28" fill="none" xmlns="http://www.w3.org/2000/svg">
<path d="M22.6668 8.66863L14.6668 1.65529C13.9334 0.999355 12.984 0.636719 12.0001 0.636719C11.0162 0.636719 10.0668 0.999355 9.33346 1.65529L1.33346 8.66863C0.909951 9.04739 0.571993 9.51204 0.342089 10.0316C0.112185 10.5512 -0.00439008 11.1138 0.000126392 11.682V23.3353C0.000126392 24.3962 0.421554 25.4136 1.1717 26.1637C1.92184 26.9139 2.93926 27.3353 4.00013 27.3353H20.0001C21.061 27.3353 22.0784 26.9139 22.8286 26.1637C23.5787 25.4136 24.0001 24.3962 24.0001 23.3353V11.6686C24.0028 11.1027 23.8853 10.5427 23.6554 10.0255C23.4256 9.50839 23.0886 9.0459 22.6668 8.66863ZM14.6668 24.6686H9.33346V18.002C9.33346 17.6483 9.47394 17.3092 9.72398 17.0592C9.97403 16.8091 10.3132 16.6686 10.6668 16.6686H13.3335C13.6871 16.6686 14.0262 16.8091 14.2763 17.0592C14.5263 17.3092 14.6668 17.6483 14.6668 18.002V24.6686ZM21.3335 23.3353C21.3335 23.6889 21.193 24.0281 20.9429 24.2781C20.6929 24.5282 20.3537 24.6686 20.0001 24.6686H17.3335V18.002C17.3335 16.9411 16.912 15.9237 16.1619 15.1735C15.4117 14.4234 14.3943 14.002 13.3335 14.002H10.6668C9.60593 14.002 8.58851 14.4234 7.83837 15.1735C7.08822 15.9237 6.66679 16.9411 6.66679 18.002V24.6686H4.00013C3.6465 24.6686 3.30737 24.5282 3.05732 24.2781C2.80727 24.0281 2.66679 23.6889 2.66679 23.3353V11.6686C2.66703 11.4793 2.70758 11.2922 2.78575 11.1198C2.86391 10.9474 2.9779 10.7936 3.12013 10.6686L11.1201 3.66863C11.3634 3.45487 11.6762 3.33698 12.0001 3.33698C12.324 3.33698 12.6368 3.45487 12.8801 3.66863L20.8801 10.6686C21.0224 10.7936 21.1363 10.9474 21.2145 11.1198C21.2927 11.2922 21.3332 11.4793 21.3335 11.6686V23.3353Z" fill="currentColor"/>
</svg>
