<svg width="25" height="28" viewBox="0 0 25 28" fill="none" xmlns="http://www.w3.org/2000/svg">
<path d="M23.6133 20.2813L20.3867 17.0546C20.2627 16.9297 20.1152 16.8305 19.9528 16.7628C19.7903 16.6951 19.616 16.6602 19.44 16.6602C19.264 16.6602 19.0897 16.6951 18.9272 16.7628C18.7648 16.8305 18.6173 16.9297 18.4933 17.0546L13.72 21.828C13.5964 21.9526 13.4987 22.1003 13.4323 22.2628C13.366 22.4252 13.3323 22.5992 13.3333 22.7746V26.0013C13.3333 26.3549 13.4738 26.6941 13.7239 26.9441C13.9739 27.1942 14.313 27.3346 14.6667 27.3346H17.8933C18.0688 27.3357 18.2428 27.302 18.4052 27.2357C18.5677 27.1693 18.7154 27.0715 18.84 26.948L23.6133 22.1746C23.7383 22.0507 23.8375 21.9032 23.9052 21.7407C23.9729 21.5783 24.0077 21.404 24.0077 21.228C24.0077 21.052 23.9729 20.8777 23.9052 20.7152C23.8375 20.5527 23.7383 20.4053 23.6133 20.2813ZM17.3333 24.668H16V23.3346L19.44 19.8946L20.7733 21.228L17.3333 24.668ZM9.33333 24.668H4C3.64638 24.668 3.30724 24.5275 3.05719 24.2774C2.80714 24.0274 2.66667 23.6883 2.66667 23.3346V4.66797C2.66667 4.31435 2.80714 3.97521 3.05719 3.72516C3.30724 3.47511 3.64638 3.33464 4 3.33464H10.6667V7.33464C10.6667 8.3955 11.0881 9.41292 11.8382 10.1631C12.5884 10.9132 13.6058 11.3346 14.6667 11.3346H18.6667V12.668C18.6667 13.0216 18.8071 13.3607 19.0572 13.6108C19.3072 13.8608 19.6464 14.0013 20 14.0013C20.3536 14.0013 20.6928 13.8608 20.9428 13.6108C21.1929 13.3607 21.3333 13.0216 21.3333 12.668V10.0013C21.3333 10.0013 21.3333 10.0013 21.3333 9.9213C21.3194 9.79881 21.2926 9.67814 21.2533 9.5613V9.4413C21.1892 9.30421 21.1037 9.17819 21 9.06797L13 1.06797C12.8898 0.964257 12.7638 0.878743 12.6267 0.814635C12.5869 0.808982 12.5465 0.808982 12.5067 0.814635L12.08 0.667969H4C2.93913 0.667969 1.92172 1.0894 1.17157 1.83954C0.421427 2.58969 0 3.6071 0 4.66797V23.3346C0 24.3955 0.421427 25.4129 1.17157 26.1631C1.92172 26.9132 2.93913 27.3346 4 27.3346H9.33333C9.68695 27.3346 10.0261 27.1942 10.2761 26.9441C10.5262 26.6941 10.6667 26.3549 10.6667 26.0013C10.6667 25.6477 10.5262 25.3085 10.2761 25.0585C10.0261 24.8084 9.68695 24.668 9.33333 24.668ZM13.3333 5.21464L16.7867 8.66797H14.6667C14.313 8.66797 13.9739 8.52749 13.7239 8.27744C13.4738 8.0274 13.3333 7.68826 13.3333 7.33464V5.21464ZM6.66667 16.668H14.6667C15.0203 16.668 15.3594 16.5275 15.6095 16.2774C15.8595 16.0274 16 15.6883 16 15.3346C16 14.981 15.8595 14.6419 15.6095 14.3918C15.3594 14.1418 15.0203 14.0013 14.6667 14.0013H6.66667C6.31304 14.0013 5.97391 14.1418 5.72386 14.3918C5.47381 14.6419 5.33333 14.981 5.33333 15.3346C5.33333 15.6883 5.47381 16.0274 5.72386 16.2774C5.97391 16.5275 6.31304 16.668 6.66667 16.668ZM6.66667 11.3346H8C8.35362 11.3346 8.69276 11.1942 8.94281 10.9441C9.19286 10.6941 9.33333 10.3549 9.33333 10.0013C9.33333 9.64768 9.19286 9.30854 8.94281 9.05849C8.69276 8.80844 8.35362 8.66797 8 8.66797H6.66667C6.31304 8.66797 5.97391 8.80844 5.72386 9.05849C5.47381 9.30854 5.33333 9.64768 5.33333 10.0013C5.33333 10.3549 5.47381 10.6941 5.72386 10.9441C5.97391 11.1942 6.31304 11.3346 6.66667 11.3346ZM9.33333 19.3346H6.66667C6.31304 19.3346 5.97391 19.4751 5.72386 19.7252C5.47381 19.9752 5.33333 20.3143 5.33333 20.668C5.33333 21.0216 5.47381 21.3607 5.72386 21.6108C5.97391 21.8608 6.31304 22.0013 6.66667 22.0013H9.33333C9.68695 22.0013 10.0261 21.8608 10.2761 21.6108C10.5262 21.3607 10.6667 21.0216 10.6667 20.668C10.6667 20.3143 10.5262 19.9752 10.2761 19.7252C10.0261 19.4751 9.68695 19.3346 9.33333 19.3346Z" fill="currentColor"/>
</svg>
