<svg width="12" height="14" viewBox="0 0 12 14" fill="none" xmlns="http://www.w3.org/2000/svg">
<path d="M1.33333 13.6654C0.966668 13.6654 0.652668 13.5347 0.391334 13.2734C0.130001 13.012 -0.000443313 12.6983 1.13186e-06 12.332V3.66537C1.13186e-06 3.29718 0.298478 2.9987 0.666668 2.9987C1.03486 2.9987 1.33333 3.29718 1.33333 3.66537V11.332C1.33333 11.8843 1.78105 12.332 2.33333 12.332H8C8.36819 12.332 8.66667 12.6305 8.66667 12.9987C8.66667 13.3669 8.36819 13.6654 8 13.6654H1.33333ZM4 10.9987C3.63333 10.9987 3.31933 10.868 3.058 10.6067C2.79667 10.3454 2.66622 10.0316 2.66667 9.66537V1.66537C2.66667 1.2987 2.79733 0.984699 3.05867 0.723366C3.32 0.462032 3.63378 0.331588 4 0.332032H10C10.3667 0.332032 10.6807 0.462699 10.942 0.724032C11.2033 0.985366 11.3338 1.29914 11.3333 1.66537V9.66537C11.3333 10.032 11.2027 10.346 10.9413 10.6074C10.68 10.8687 10.3662 10.9991 10 10.9987H4ZM4 8.66537C4 9.21765 4.44772 9.66537 5 9.66537H9C9.55229 9.66537 10 9.21765 10 8.66537V2.66537C10 2.11308 9.55229 1.66537 9 1.66537H5C4.44772 1.66537 4 2.11308 4 2.66537V8.66537Z" fill="currentColor"/>
</svg>
