<svg width="20" height="16" viewBox="0 0 20 16" fill="none" xmlns="http://www.w3.org/2000/svg">
<path fill-rule="evenodd" clip-rule="evenodd" d="M8.45257 11.8513L19.1429 11.8513C19.3702 11.8513 19.5882 11.945 19.7489 12.1117C19.9097 12.2784 20 12.5046 20 12.7403C20 12.9761 19.9097 13.2022 19.7489 13.369C19.5882 13.5357 19.3702 13.6293 19.1429 13.6293L8.45257 13.6293C8.26579 14.312 7.8694 14.9128 7.32355 15.3407C6.7777 15.7685 6.11219 16 5.428 16C4.74381 16 4.0783 15.7685 3.53245 15.3407C2.9866 14.9128 2.59021 14.312 2.40343 13.6293L0.857142 13.6293C0.629814 13.6293 0.411795 13.5357 0.251049 13.369C0.0903037 13.2022 2.64357e-07 12.9761 2.84969e-07 12.7403C3.05582e-07 12.5046 0.0903037 12.2784 0.251049 12.1117C0.411795 11.945 0.629815 11.8513 0.857142 11.8513L2.40457 11.8513C2.59135 11.1687 2.98775 10.5678 3.53359 10.14C4.07945 9.71215 4.74496 9.48067 5.42914 9.48067C6.11333 9.48067 6.77884 9.71215 7.32469 10.14C7.87054 10.5678 8.26693 11.1687 8.45371 11.8513L8.45257 11.8513ZM6.85714 12.7403C6.85714 13.1333 6.70663 13.5102 6.43872 13.788C6.17081 14.0659 5.80745 14.222 5.42857 14.222C5.04969 14.222 4.68633 14.0659 4.41842 13.788C4.15051 13.5102 4 13.1333 4 12.7403C4 12.3474 4.15051 11.9705 4.41842 11.6926C4.68633 11.4148 5.04969 11.2587 5.42857 11.2587C5.80745 11.2587 6.17081 11.4148 6.43872 11.6926C6.70663 11.9705 6.85714 12.3474 6.85714 12.7403ZM11.5474 2.36857L0.857143 2.36857C0.629815 2.36857 0.411796 2.46223 0.25105 2.62895C0.0903046 2.79568 1.13459e-06 3.0218 1.11398e-06 3.25758C1.09337e-06 3.49336 0.0903045 3.71948 0.25105 3.8862C0.411796 4.05292 0.629815 4.14659 0.857143 4.14659L11.5474 4.14659C11.7346 4.82877 12.131 5.42907 12.6767 5.8565C13.2224 6.28392 13.8876 6.51516 14.5714 6.51516C15.2553 6.51516 15.9204 6.28392 16.4661 5.8565C17.0118 5.42907 17.4083 4.82877 17.5954 4.14659L19.1429 4.14659C19.3702 4.14659 19.5882 4.05293 19.7489 3.8862C19.9097 3.71948 20 3.49336 20 3.25758C20 3.0218 19.9097 2.79568 19.7489 2.62896C19.5882 2.46223 19.3702 2.36857 19.1429 2.36857L17.5954 2.36857C17.4083 1.68639 17.0118 1.08609 16.4661 0.658664C15.9204 0.231239 15.2553 -4.14799e-07 14.5714 -4.74581e-07C13.8876 -5.34363e-07 13.2224 0.231239 12.6767 0.658664C12.131 1.08609 11.7346 1.68639 11.5474 2.36857ZM16 3.25758C16 3.65055 15.8495 4.02742 15.5816 4.30529C15.3137 4.58316 14.9503 4.73926 14.5714 4.73926C14.1925 4.73926 13.8292 4.58316 13.5613 4.30529C13.2934 4.02742 13.1429 3.65055 13.1429 3.25758C13.1429 2.86461 13.2934 2.48774 13.5613 2.20987C13.8292 1.932 14.1925 1.7759 14.5714 1.7759C14.9503 1.7759 15.3137 1.932 15.5816 2.20987C15.8495 2.48774 16 2.86461 16 3.25758Z" fill="#1B1B2B"/>
</svg>
