<svg width="1067" height="1024" viewBox="0 0 1067 1024" fill="none" xmlns="http://www.w3.org/2000/svg">
<path opacity="0.3" d="M1148.69 -79.8649C1089.7 21.2071 1067.84 106.409 1058.86 165.997C1049.78 226.253 1051.62 275.531 1023.52 343.496C992.628 418.535 956.389 456.301 940.965 470.473C919.572 490.115 917.115 486.238 878.627 515.923C804.691 572.944 805.082 593.905 767.071 616.027C704.052 652.712 677.477 609.946 595.639 637.148C536.364 656.839 464.424 707.821 438.085 781.115C413.285 850.137 448.467 884.542 411.361 949.433C396.119 976.089 376.37 993.296 336.881 1027.69C286.341 1071.83 245.033 1096.29 229.285 1106.65C182.608 1137.31 123.879 1198.45 78.6469 1333.78M1136.28 -89.5273C1078.39 7.65816 1052.96 92.8348 1041.97 156.993C1033.29 209.291 1032.94 253.571 1018.8 305.013C1015.7 316.257 1012.16 327.911 1007.68 339.997C979.452 416.141 947.071 456.374 933.012 472.788C914.17 494.808 911.575 492.987 873.955 522.149C847.456 542.713 829.725 558.159 816.537 570.507C794.129 591.504 785.137 603.577 761.617 616.05C752.871 620.725 743.616 624.378 734.034 626.935C689.731 638.771 660.007 616.091 594.115 641.058C536.757 662.79 468.035 715.356 442.316 787.518C440.281 793.237 438.537 799.056 437.09 804.951C422.51 864.46 447.174 897.424 414.63 954.51C411.208 960.531 407.389 966.317 403.197 971.83C389.17 990.397 370.612 1006.74 341.05 1032.51C291.999 1075.14 251.386 1099.27 234.007 1110.68C221.32 1119.06 209.36 1128.5 198.251 1138.89C159.696 1174.75 116.956 1233.68 81.058 1333.59M1122.73 -99.9886C1065.98 -6.68389 1036.73 78.4071 1024.05 147.273C1013.97 201.953 1013.71 248.365 1000.85 299.57C997.924 311.268 994.812 323.332 990.698 335.738C965.144 412.997 938.02 456.592 923.903 474.357C905.684 497.227 904.846 499.01 868.148 527.601C842.433 547.605 824.082 562.509 810.404 574.099C787.398 593.654 778.075 604.276 755.055 615.23C746.242 619.374 737.034 622.621 727.57 624.921C684.113 635.893 654.405 617.096 591.387 644.168C535.961 667.952 470.457 722.1 445.358 793.131C443.287 799.183 441.483 804.856 440.174 810.442C424.897 871.658 447.951 903.754 416.613 958.749C413.236 964.735 409.467 970.49 405.33 975.979C391.181 994.939 372.774 1011.35 343.817 1036.41C296.302 1077.6 256.36 1101.32 237.486 1113.9C224.906 1122.22 213.015 1131.54 201.927 1141.77C163.433 1177.1 119.882 1235.06 82.2923 1332.54M1108.23 -111.094C1052.55 -21.7109 1019.72 63.3837 1005.11 136.857C993.772 193.943 993.503 242.479 981.948 293.429C979.199 305.595 976.491 318.074 972.776 330.781C949.869 409.136 925.135 453.973 913.87 475.239C899.921 501.54 897.192 504.345 861.406 532.38C836.484 551.874 817.499 566.224 803.279 577.13C779.699 595.238 769.996 604.419 747.491 613.863C738.641 617.419 729.506 620.223 720.185 622.245C677.588 632.363 647.849 617.547 587.803 646.616C534.268 672.509 472.009 728.173 447.544 798.083C445.504 804.091 443.72 809.734 442.388 815.26C426.506 878.206 447.862 909.436 417.895 962.414C414.56 968.369 410.838 974.1 406.753 979.568C392.495 998.931 374.17 1015.44 345.921 1039.8C299.977 1079.52 260.701 1102.89 240.226 1116.54C227.763 1124.84 215.937 1134.06 204.846 1144.12C166.414 1178.94 122.037 1235.9 82.781 1330.95M1093.71 -122.24C1039.13 -36.743 1002.69 48.3055 986.159 126.412C973.575 185.928 973.32 236.583 963.025 287.287C960.458 299.907 958.18 312.796 954.828 325.823C934.524 405.242 913.627 452.206 903.782 476.1C892.154 504.333 889.524 509.601 854.609 537.138C830.396 556.15 810.881 569.889 796.184 580.112C772.045 596.784 761.942 604.488 739.957 612.448C731.088 615.411 722.03 617.777 712.845 619.53C671.127 628.829 641.343 617.984 584.17 649.003C532.541 677.017 473.522 734.17 449.666 802.963C447.667 808.913 445.904 814.528 444.553 820.019C428.042 884.698 447.574 914.932 419.056 965.968C415.741 971.879 412.066 977.583 408.054 983.046C393.693 1002.77 375.526 1019.3 347.904 1043.08C303.481 1081.35 264.866 1104.33 242.833 1119.09C230.471 1127.34 218.707 1136.45 207.629 1146.36C169.234 1180.65 124.06 1236.64 83.0983 1329.26M1084.49 -129.623C1031 -48.0134 990.939 36.9934 972.493 119.718C958.686 181.66 958.478 234.481 949.386 284.896C947.025 297.966 945.099 311.254 942.163 324.616C924.482 405.071 907.319 454.154 899.037 480.689C889.616 510.797 887.141 518.697 853.156 545.624C834.367 560.479 814.721 574.217 794.319 586.765C769.605 602.055 759.094 608.233 737.732 614.715C728.382 617.531 719.622 618.825 710.722 620.629C669.941 629.15 640 622.219 585.804 655.196C536.065 685.384 480.291 743.988 457.055 811.649C455.087 817.555 453.344 823.141 451.984 828.582C434.791 894.979 452.746 924.39 425.474 973.341C422.191 979.21 418.562 984.88 414.607 990.319C400.095 1010.42 382.108 1027.03 355.227 1050.16C312.381 1086.98 274.387 1109.58 250.807 1125.42C238.542 1133.63 226.838 1142.65 215.772 1152.42C177.425 1186.18 131.434 1241.16 88.7963 1331.37M1078.08 -135.12C1025.73 -57.3908 982.056 27.5846 961.657 114.921C946.626 179.29 946.516 234.266 938.503 284.352C936.353 297.896 934.813 311.564 932.255 325.256C917.102 406.789 903.649 457.995 896.968 487.176C889.714 519.065 887.477 529.634 854.393 556.018C835.855 570.801 816.089 583.977 795.311 595.4C770.093 609.271 759.104 613.959 738.227 618.912C728.991 621.133 720.288 621.88 711.36 623.599C671.39 631.275 641.559 628.467 590.199 663.26C542.359 695.672 489.812 755.691 467.21 822.231C465.283 828.079 463.57 833.621 462.182 839.042C444.261 907.126 460.566 935.727 434.551 982.514C431.31 988.354 427.728 993.998 423.824 999.417C409.209 1019.88 391.354 1036.59 365.102 1059C323.788 1094.36 286.47 1116.57 261.293 1133.52C249.138 1141.69 237.501 1150.6 226.448 1160.21C188.137 1193.46 141.321 1247.45 97.0208 1335.24M1071.54 -140.647C1020.26 -66.8395 973.055 18.1161 950.684 110.094C934.454 176.885 934.479 234.023 927.634 283.84C925.725 297.879 924.55 311.955 922.351 325.943C909.718 408.504 899.895 461.822 894.948 493.677C889.689 527.466 887.836 540.588 855.665 566.416C837.278 581.105 817.303 593.686 796.114 603.925C770.441 616.366 758.904 619.54 738.606 623.05C729.498 624.622 720.876 624.881 711.887 626.471C672.819 633.387 642.95 634.663 594.477 671.264C548.554 705.935 499.25 767.315 477.284 832.67C475.388 838.474 473.696 843.987 472.313 849.369C453.768 919.212 468.45 946.87 443.755 991.712C440.546 997.509 437.015 1003.12 433.179 1008.52C418.514 1029.43 400.737 1046.15 375.145 1067.87C335.395 1101.8 298.72 1123.6 271.989 1141.67C259.926 1149.79 248.342 1158.6 237.295 1168.06C199.09 1200.82 151.447 1253.81 105.437 1339.15M1064.98 -146.203C1014.79 -76.2819 964.019 8.64817 939.696 105.238C922.257 174.465 922.433 233.776 916.658 283.277C914.965 297.751 914.102 312.22 912.388 326.57C902.265 410.174 896.051 465.633 892.85 500.148C889.592 535.798 888.142 551.508 856.873 576.794C838.647 591.386 818.504 603.406 797.008 612.517C770.784 623.636 758.792 625.164 739.071 627.23C730.068 628.157 721.536 627.979 712.496 629.424C674.315 635.571 644.473 640.934 598.842 679.311C554.86 716.301 508.751 778.987 487.389 843.265C485.523 849.025 483.852 854.508 482.446 859.83C463.163 931.375 476.275 958.171 452.874 1000.98C449.692 1006.74 446.209 1012.33 442.438 1017.72C427.689 1039.02 409.969 1055.85 385.085 1076.87C346.892 1109.33 310.853 1130.75 282.565 1149.92C270.588 1157.98 259.05 1166.68 248.002 1175.97C209.79 1208.17 161.38 1260.22 113.679 1343.13M1058.44 -151.748C1009.4 -85.6824 955.047 -0.738546 928.756 100.453C910.082 172.185 910.486 233.591 905.73 282.786C904.288 297.74 903.747 312.587 902.421 327.253C894.774 411.854 892.145 469.458 890.772 506.669C889.401 544.187 888.443 562.482 858.085 587.213C839.968 601.69 819.618 613.126 797.831 621.073C771.139 630.843 758.594 630.742 739.465 631.375C730.566 631.657 722.168 631.008 713.001 632.386C675.703 637.803 645.954 647.342 603.099 687.406C561.087 726.734 518.154 790.692 497.401 853.853C495.576 859.555 493.925 865.009 492.427 870.245C472.433 943.486 483.964 969.435 461.848 1010.17C458.718 1015.92 455.274 1021.49 451.531 1026.86C436.582 1048.48 419.132 1065.38 394.928 1085.84C358.282 1116.84 322.89 1137.86 293.033 1158.16C282.238 1165.48 270.729 1173.92 258.694 1183.94C220.544 1215.63 171.307 1266.68 121.94 1347.16M1052.11 -157.14C1004.2 -95.0448 946.269 -10.112 917.977 95.7009C898.16 169.807 898.737 233.445 894.977 282.337C893.795 297.757 893.552 312.986 892.642 327.988C887.43 413.645 888.352 473.413 888.863 513.208C889.467 552.655 888.924 573.46 859.469 597.649C841.44 612.029 820.881 622.91 798.851 629.732C771.658 638.171 758.625 636.315 740.057 635.622C731.262 635.259 722.964 634.158 713.777 635.348C677.389 640.056 647.656 653.695 607.646 695.472C567.636 737.249 527.851 802.393 507.718 864.422C505.924 870.08 504.293 875.505 502.816 880.712C482.099 955.666 492.05 980.766 471.191 1019.49C468.11 1025.19 464.718 1030.72 461.031 1036.05C445.968 1058.11 428.661 1075.03 405.127 1094.71C370.031 1124.28 335.282 1144.88 303.872 1166.31C293.136 1173.61 281.703 1181.97 269.698 1191.8C231.609 1222.96 181.561 1273.03 130.488 1351.07M1045.86 -162.461C998.984 -104.229 937.591 -19.3537 907.283 91.0697C886.197 167.635 887.124 233.411 884.3 281.96C883.384 297.87 883.423 313.472 882.91 328.838C880.168 415.532 884.585 477.449 887.079 519.875C889.457 561.196 889.492 584.648 861.007 608.168C842.09 623.784 818.722 633.623 800.037 638.46C772.36 645.603 758.72 642.102 740.803 639.952C732.133 638.916 723.925 637.377 714.672 638.412C679.214 642.446 649.601 660.193 612.342 703.661C574.424 747.819 537.683 814.206 518.169 875.104C516.416 880.704 514.806 886.1 513.339 891.292C491.924 967.953 500.305 992.191 480.741 1028.82C477.696 1034.49 474.351 1039.99 470.721 1045.31C455.609 1067.75 438.389 1084.73 415.468 1103.82C381.918 1131.92 347.846 1152.09 314.868 1174.63C304.207 1181.92 292.821 1190.18 280.884 1199.82C242.833 1230.46 191.973 1279.55 139.263 1355.18M1039.71 -167.734C993.912 -113.399 929.218 -28.4688 896.702 86.4966C874.678 165.515 875.623 233.435 873.76 281.7C873.143 298.082 873.42 314.09 873.364 329.734C872.964 417.462 880.984 481.622 885.344 526.597C889.543 569.85 890.183 595.726 862.532 618.832C844.359 633.946 820.469 643.289 801.22 647.317C773.06 653.164 758.939 647.868 741.558 644.397C732.982 642.731 724.912 640.746 715.584 641.641C680.983 644.949 651.561 666.92 616.932 711.971C581.099 758.615 547.408 826.141 528.529 885.918C526.794 891.472 525.207 896.834 523.77 902.004C501.594 980.371 508.434 1003.77 490.144 1038.33C487.147 1043.97 483.853 1049.44 480.274 1054.73C465.064 1077.56 447.946 1094.61 425.702 1113.04C393.724 1139.68 360.205 1159.43 325.708 1183.15C315.092 1190.41 303.807 1198.59 291.903 1208.05C253.899 1238.16 202.228 1286.27 147.797 1359.45M1033.66 -172.938C988.978 -122.494 920.703 -37.5747 886.22 81.9926C862.988 163.447 864.256 233.573 863.275 281.479C862.93 298.312 863.503 314.702 863.854 330.697C865.836 419.464 877.348 485.902 883.734 533.385C889.748 578.607 891.01 607.008 864.298 629.488C846.872 644.127 822.435 652.977 802.614 656.147C773.951 660.727 759.319 653.616 742.519 648.791C734.084 646.397 726.067 644.057 716.698 644.793C682.931 647.533 652.238 672.68 621.736 720.344C589.669 770.456 557.348 838.139 539.078 896.799C537.376 902.304 535.814 907.632 534.391 912.782C511.355 992.809 516.776 1015.41 499.76 1047.91C496.796 1053.51 493.544 1058.95 490.016 1064.22C474.693 1087.42 457.676 1104.61 436.19 1122.34C405.726 1147.41 372.725 1166.76 336.758 1191.64C326.202 1198.87 314.978 1206.97 303.129 1216.23C265.162 1245.82 212.679 1292.94 156.567 1363.69M1027.72 -178.148C984.166 -131.569 912.29 -46.6961 875.855 77.4834C851.413 161.374 853.051 233.609 852.976 281.28C852.899 298.628 853.727 315.37 854.573 331.712C858.959 421.579 873.949 490.129 882.302 540.233C890.063 587.463 891.838 618.356 866.032 640.32C849.364 654.467 824.395 662.835 803.991 665.161C774.854 668.495 759.743 659.525 743.476 653.443C735.161 650.35 727.233 647.638 717.783 648.208C684.973 650.205 656.016 680.442 626.64 728.765C595.246 780.306 567.398 850.17 549.748 907.699C548.137 913.095 546.527 918.49 545.132 923.58C521.398 1005.31 525.243 1027.09 509.487 1057.52C506.572 1063.08 503.37 1068.5 499.893 1073.73C484.473 1097.33 467.609 1114.51 446.73 1131.62C417.834 1155.36 385.594 1174.31 347.996 1200.24C337.489 1207.47 326.389 1215.54 314.491 1224.59C276.659 1253.71 223.281 1299.82 165.53 1368.06M1021.76 -183.175C979.286 -140.519 903.879 -55.6651 865.456 73.1455C839.765 159.531 841.876 233.881 842.644 281.187C842.923 298.958 843.918 316.144 845.173 332.773C851.697 423.684 870.476 494.522 880.867 547.056C890.511 596.281 892.882 629.55 867.878 651.054C851.967 664.71 826.446 672.626 805.484 674.104C775.775 676.144 760.292 665.348 744.53 657.988C736.352 654.143 728.505 651.096 719.001 651.497C687.075 652.853 658.452 687.327 631.604 737.163C602.429 791.152 577.487 862.207 560.482 918.6C558.871 923.995 557.333 929.289 555.821 934.297C531.379 1017.75 533.722 1038.69 519.23 1067.07C516.309 1072.63 513.101 1078.03 509.618 1083.25C495.42 1105.2 477.718 1124.67 457.216 1140.89C429.867 1163.17 398.273 1181.72 359.107 1208.78C348.675 1215.99 337.603 1223.93 325.823 1232.78C271.033 1274.37 220.332 1321.09 174.406 1372.31M1015.9 -188.246C974.519 -149.476 895.54 -64.6481 855.166 68.7747C828.306 157.539 830.732 234.045 832.334 281.153C839.542 490.308 924.389 614.435 869.723 661.94C854.57 675.106 828.496 682.568 806.973 683.173C761.028 684.483 748.081 654.257 720.203 654.929C651.842 656.565 597.263 841.363 566.582 945.218C536.674 1046.48 543.424 1055.74 519.602 1092.8C478.053 1157.51 429.852 1172.49 337.243 1241.12C282.266 1281.98 230.788 1327.36 183.345 1376.77M1011.73 -191.173C968.612 -151.817 892.816 -69.1069 854.255 58.4753C827.702 146.584 831.985 221.218 833.198 271.424C837.924 471.9 914.525 587.131 863.986 639.141C844.247 659.465 820.573 677.551 798.522 684.986C755.176 699.582 743.2 674.453 713.187 679.5C647.458 690.531 593.259 860.587 563.068 958.782C533.747 1054.5 538.71 1062.68 510.53 1099.75C463.705 1161.34 419.448 1176.87 331.675 1241.15C276.923 1281.26 226.068 1326.43 179.785 1376.08M1007.39 -194.219C934.901 -128.988 881.586 -45.2181 853.182 48.0678C826.922 135.512 833.153 208.206 833.9 261.588C836.515 453.382 905.933 561.552 858.077 616.248C833.784 643.993 813.169 671.642 789.894 686.68C750.016 712.518 738.764 694.14 705.995 703.953C643.426 722.726 589.094 879.702 559.383 972.252C530.74 1062.29 534.051 1069.5 501.286 1106.6C449.604 1165.14 408.736 1181.03 325.931 1241.06C271.427 1280.41 221.205 1325.37 176.089 1375.21M999.66 -199.638C928.55 -136.823 876.292 -55.4848 848.717 35.3007C822.775 122.076 830.944 192.845 831.221 249.377C832.099 432.361 883.561 526.934 848.797 590.967C827.047 631.024 802.298 662.581 777.89 686.025C741.024 721.459 731.229 711.02 695.426 726.057C636.155 750.95 581.381 896.371 552.327 983.334C524.134 1067.7 526.183 1073.99 488.685 1111.07C432.429 1166.7 394.683 1182.84 316.81 1238.62C262.528 1277.2 212.919 1321.96 168.982 1372.01M987.897 -207.895C918.175 -147.494 866.99 -68.5787 840.271 19.7128C814.65 105.843 824.767 174.673 824.549 234.36C823.912 408.559 868.124 497.436 835.515 562.894C811.279 611.517 794.151 657.449 761.903 682.549C717.53 717.088 715.442 718.081 680.875 745.34C620.237 764.771 569.73 910.249 541.267 991.624C513.658 1070.36 514.449 1075.74 472.068 1112.74C411.515 1165.6 376.589 1181.77 303.706 1233.36C249.651 1271.17 200.654 1315.75 157.907 1365.99M975.856 -216.339C907.513 -158.365 857.357 -81.8967 831.409 3.8847C806.08 89.3503 818.2 156.256 817.462 219.102C815.537 384.503 853.175 468.115 821.888 534.479C794.9 591.677 779.085 643.923 745.487 678.823C702.169 723.826 702.12 730.469 665.894 764.372C607.293 788.278 557.81 923.925 529.865 999.571C502.839 1072.67 502.507 1077.26 455.106 1114.07C390.4 1164.39 358.122 1180.35 290.249 1227.77C236.419 1264.82 188.028 1309.21 146.478 1359.65M963.583 -224.951C896.667 -169.394 847.577 -95.3766 822.429 -12.119C797.407 72.6919 811.549 137.645 810.257 203.669C807.191 360.308 838.606 438.902 808.011 506.077C778.182 571.572 754.186 624.627 728.967 674.931C697.83 737.05 688.71 742.702 650.809 783.239C594.108 811.631 545.674 937.443 518.211 1007.53C491.768 1074.99 490.402 1078.86 437.894 1115.41C369.286 1163.17 339.366 1178.87 276.577 1222.11C222.976 1258.41 175.186 1302.62 134.835 1353.24M951.147 -233.674C897.373 -190.417 840.672 -120.848 813.241 -28.2C788.35 55.8976 804.729 118.963 802.853 188.145C798.836 336.002 824.214 409.774 794.007 477.482C761.061 551.296 737.164 611.62 712.239 670.962C682.406 742.043 682.37 762.03 635.516 802.029C586.972 843.474 533.316 950.809 506.43 1015.3C480.586 1077.13 478.208 1080.33 420.569 1116.57C348.049 1162.06 320.444 1177.19 262.69 1216.42C226.789 1240.8 175.157 1279.36 122.977 1346.8M938.494 -242.549C882.97 -198.626 829.463 -131.254 803.86 -44.4367C779.261 38.996 797.771 100.141 795.247 172.479C790.416 311.543 810.006 380.449 779.79 448.76C743.526 530.775 719.759 598.542 695.318 666.837C666.632 747.011 668.914 773.648 620.03 820.663C573.388 865.444 520.881 964.101 494.436 1022.94C469.17 1079.17 465.923 1081.94 403.017 1117.6C326.686 1160.89 301.282 1175.3 248.652 1210.51C213.001 1234.35 161.89 1272.17 110.953 1340.13M925.695 -251.529C868.318 -206.949 818.108 -141.766 794.319 -60.7894C770.013 21.9784 790.688 81.1835 787.481 156.697C781.955 286.986 795.785 351.112 765.423 419.908C725.631 510.084 702.1 585.39 678.237 662.596C650.602 751.969 654.952 784.929 604.385 839.181C559.52 887.319 508.214 977.226 482.293 1030.45C457.695 1081.02 453.493 1083.44 385.316 1118.49C305.17 1159.71 281.926 1173.25 234.455 1204.48C199.028 1227.79 148.402 1264.79 98.7837 1333.35M912.706 -260.643C853.649 -215.436 806.568 -152.388 784.602 -77.2658C760.603 4.84734 783.508 62.1146 779.539 140.791C773.431 262.297 789.31 325.642 750.87 390.946C696.378 483.534 684.219 572.148 660.981 658.232C634.341 756.852 652.947 809.21 588.563 857.575C534.73 897.942 495.5 990.23 469.964 1037.85C445.97 1082.75 440.914 1084.91 367.442 1119.28C283.51 1158.52 262.356 1171 220.081 1198.34C184.876 1221.08 134.756 1257.33 86.424 1326.44M899.296 -270.049C838.46 -224.198 794.646 -163.295 774.367 -94.0806C750.685 -12.6367 775.899 42.7043 771.089 124.532C764.451 237.336 773.539 295.199 735.819 361.617C678.427 462.742 665.775 558.602 643.205 653.529C617.521 761.454 637.129 817.561 572.223 875.631C520.729 921.685 482.104 1002.91 457.136 1044.89C433.78 1084.17 427.804 1086.17 349.056 1119.7C261.33 1157.06 242.234 1168.37 205.189 1191.85C170.2 1214 120.616 1249.52 73.5601 1319.2M885.037 -280.05C822.432 -233.569 781.827 -174.852 763.453 -111.393C740.078 -30.6034 767.689 22.8087 761.95 107.791C754.939 211.763 757.091 264.259 720.069 331.82C659.902 441.613 646.607 544.591 624.737 648.319C600 765.652 619.565 825.231 555.19 893.18C506.24 944.847 468.142 1015.09 443.61 1051.45C420.926 1085.09 414.013 1087.01 329.971 1119.64C238.46 1155.18 221.345 1165.25 189.603 1184.85C154.787 1206.39 105.722 1241.29 60.0034 1311.45M870.533 -290.225C806.149 -243.099 768.782 -186.548 752.207 -128.939C729.154 -48.7947 759.28 2.7061 752.478 90.8152C745.137 186.05 740.369 233.061 703.997 301.774C641.257 420.289 627.1 530.385 605.951 642.884C582.085 769.704 600.835 832.583 537.839 910.504C491.609 967.689 453.882 1027.08 429.761 1057.77C407.789 1085.77 399.918 1087.69 310.564 1119.34C215.221 1153.15 200.109 1161.66 173.686 1177.62C139.019 1198.48 90.5934 1232.66 46.1141 1303.47M854.746 -301.304C788.598 -253.524 754.572 -199.131 739.692 -147.381C717.123 -67.8321 749.77 -18.2821 741.739 72.9447C734.13 159.444 722.404 200.964 686.646 270.847C621.519 398.129 606.29 515.304 585.937 636.496C563.024 772.685 573.779 835.024 519.261 926.875C480.398 992.318 438.405 1038.1 414.675 1063.15C393.413 1085.58 384.555 1087.48 289.934 1118.11C190.734 1150.19 177.674 1157.21 156.569 1169.46C121.981 1189.53 74.2051 1223.18 31.0119 1294.55M839.119 -312.268C771.202 -263.858 740.389 -211.627 727.313 -165.702C705.06 -86.8231 740.628 -39.1402 731.144 55.1792C723.323 132.959 704.619 168.953 669.451 240.012C602.078 376.137 585.63 500.352 565.962 630.335C543.939 776.045 555.303 843.965 500.721 943.472C462.779 1012.56 423.048 1049.45 399.663 1068.73C379.115 1085.62 369.268 1087.57 269.363 1117.08C166.299 1147.53 155.23 1152.86 139.478 1161.52C104.849 1180.55 57.8805 1213.93 15.9631 1285.86M823.478 -323.238C753.828 -274.217 726.132 -224.041 714.945 -184.035C693.04 -105.868 731.791 -59.9329 720.551 37.4176C712.576 106.519 686.846 136.931 652.247 209.194C582.826 354.193 565.019 485.46 546.054 624.114C524.907 779.335 536.856 852.995 482.248 960.011C445.01 1032.97 407.776 1060.83 384.682 1074.28C364.975 1085.75 354.048 1087.59 248.824 1116.01C141.871 1144.84 132.801 1148.37 122.453 1153.51C87.454 1170.88 41.5936 1204.59 0.952094 1277.09" stroke="url(#paint0_radial_819_33815)" stroke-width="1.17314" stroke-miterlimit="10"/>
<defs>
<radialGradient id="paint0_radial_819_33815" cx="0" cy="0" r="1" gradientUnits="userSpaceOnUse" gradientTransform="translate(492.277 533.093) rotate(-144.949) scale(241.14 891.239)">
<stop stop-color="#6E41E2"/>
<stop offset="1" stop-color="#6E41E2" stop-opacity="0.44"/>
</radialGradient>
</defs>
</svg>
