<svg width="21" height="22"  fill="none" xmlns="http://www.w3.org/2000/svg">
<path d="M9.93628 5.08019C10.287 5.02642 10.6414 4.99967 10.9963 5.00019C14.1763 5.00019 17.1663 7.29018 18.9063 11.0002C18.6402 11.5648 18.3396 12.1125 18.0063 12.6402C17.9005 12.804 17.8448 12.9952 17.8463 13.1902C17.8485 13.4084 17.9221 13.6199 18.0557 13.7925C18.1894 13.965 18.3759 14.089 18.5866 14.1457C18.7974 14.2024 19.0209 14.1885 19.2231 14.1063C19.4252 14.024 19.5949 13.8779 19.7063 13.6902C20.1722 12.9581 20.5769 12.1888 20.9163 11.3902C20.9699 11.2654 20.9976 11.131 20.9976 10.9952C20.9976 10.8594 20.9699 10.725 20.9163 10.6002C18.8963 5.91019 15.0963 3.00019 10.9963 3.00019C10.5269 2.99782 10.0584 3.03798 9.59628 3.12019C9.46496 3.14251 9.33932 3.19048 9.22654 3.26136C9.11375 3.33224 9.01604 3.42464 8.93896 3.53329C8.86189 3.64193 8.80697 3.76469 8.77734 3.89456C8.74771 4.02443 8.74395 4.15886 8.76628 4.29019C8.7886 4.42151 8.83658 4.54715 8.90746 4.65993C8.97834 4.77271 9.07074 4.87043 9.17938 4.9475C9.28802 5.02457 9.41079 5.07949 9.54066 5.10912C9.67052 5.13875 9.80496 5.14251 9.93628 5.12019V5.08019ZM2.70628 1.29019C2.61304 1.19695 2.50235 1.12299 2.38053 1.07253C2.25871 1.02207 2.12814 0.996094 1.99628 0.996094C1.86442 0.996094 1.73385 1.02207 1.61203 1.07253C1.49021 1.12299 1.37952 1.19695 1.28628 1.29019C1.09798 1.47849 0.992188 1.73388 0.992188 2.00019C0.992188 2.26649 1.09798 2.52188 1.28628 2.71019L4.38628 5.80019C2.97185 7.16171 1.84614 8.79417 1.07628 10.6002C1.02122 10.7264 0.992794 10.8625 0.992794 11.0002C0.992794 11.1378 1.02122 11.274 1.07628 11.4002C3.09628 16.0902 6.89628 19.0002 10.9963 19.0002C12.7934 18.9878 14.548 18.4527 16.0463 17.4602L19.2863 20.7102C19.3792 20.8039 19.4898 20.8783 19.6117 20.9291C19.7336 20.9798 19.8643 21.006 19.9963 21.006C20.1283 21.006 20.259 20.9798 20.3809 20.9291C20.5027 20.8783 20.6133 20.8039 20.7063 20.7102C20.8 20.6172 20.8744 20.5066 20.9252 20.3848C20.9759 20.2629 21.0021 20.1322 21.0021 20.0002C21.0021 19.8682 20.9759 19.7375 20.9252 19.6156C20.8744 19.4937 20.8 19.3831 20.7063 19.2902L2.70628 1.29019ZM9.06628 10.4802L11.5163 12.9302C11.3473 12.9787 11.1721 13.0022 10.9963 13.0002C10.4658 13.0002 9.95714 12.7895 9.58207 12.4144C9.20699 12.0393 8.99628 11.5306 8.99628 11.0002C8.99423 10.8244 9.01781 10.6492 9.06628 10.4802ZM10.9963 17.0002C7.81628 17.0002 4.82628 14.7102 3.09628 11.0002C3.74237 9.57393 4.65935 8.28676 5.79628 7.21019L7.56628 9.00019C7.15053 9.75898 6.99202 10.6321 7.11454 11.4886C7.23706 12.3452 7.634 13.1388 8.24581 13.7507C8.85762 14.3625 9.65131 14.7594 10.5078 14.8819C11.3643 15.0044 12.2375 14.8459 12.9963 14.4302L14.5863 16.0002C13.4974 16.6411 12.2597 16.9858 10.9963 17.0002Z" fill="#8D8D8D"/>
</svg>
