<svg width="6" height="10" viewBox="0 0 6 10" fill="none" xmlns="http://www.w3.org/2000/svg">
<path d="M5.35136 4.90918L1.57803 1.14251C1.51605 1.08003 1.44232 1.03043 1.36108 0.996584C1.27984 0.962738 1.1927 0.945312 1.10469 0.945312C1.01669 0.945312 0.92955 0.962738 0.84831 0.996584C0.767071 1.03043 0.693337 1.08003 0.631362 1.14251C0.507194 1.26742 0.4375 1.43639 0.4375 1.61251C0.4375 1.78864 0.507194 1.9576 0.631362 2.08251L3.93136 5.41584L0.631362 8.71584C0.507194 8.84075 0.4375 9.00972 0.4375 9.18584C0.4375 9.36197 0.507194 9.53094 0.631362 9.65584C0.693105 9.71884 0.766735 9.76895 0.847985 9.80328C0.929235 9.83761 1.01649 9.85548 1.10469 9.85584C1.1929 9.85548 1.28015 9.83761 1.36141 9.80328C1.44266 9.76895 1.51629 9.71884 1.57803 9.65584L5.35136 5.88918C5.41903 5.82675 5.47304 5.75098 5.50997 5.66665C5.54691 5.58232 5.56598 5.49125 5.56598 5.39918C5.56598 5.30711 5.54691 5.21604 5.50997 5.13171C5.47304 5.04737 5.41903 4.97161 5.35136 4.90918Z" fill="#D4D4D4"/>
</svg>
