<svg width="28" height="16" viewBox="0 0 28 16" fill="none" xmlns="http://www.w3.org/2000/svg">
<path d="M1.99984 2.66667H25.9998C26.3535 2.66667 26.6926 2.52619 26.9426 2.27614C27.1927 2.02609 27.3332 1.68696 27.3332 1.33333C27.3332 0.979711 27.1927 0.640573 26.9426 0.390525C26.6926 0.140476 26.3535 0 25.9998 0H1.99984C1.64622 0 1.30708 0.140476 1.05703 0.390525C0.80698 0.640573 0.666504 0.979711 0.666504 1.33333C0.666504 1.68696 0.80698 2.02609 1.05703 2.27614C1.30708 2.52619 1.64622 2.66667 1.99984 2.66667ZM25.9998 13.3333H1.99984C1.64622 13.3333 1.30708 13.4738 1.05703 13.7239C0.80698 13.9739 0.666504 14.313 0.666504 14.6667C0.666504 15.0203 0.80698 15.3594 1.05703 15.6095C1.30708 15.8595 1.64622 16 1.99984 16H25.9998C26.3535 16 26.6926 15.8595 26.9426 15.6095C27.1927 15.3594 27.3332 15.0203 27.3332 14.6667C27.3332 14.313 27.1927 13.9739 26.9426 13.7239C26.6926 13.4738 26.3535 13.3333 25.9998 13.3333ZM25.9998 6.66667H1.99984C1.64622 6.66667 1.30708 6.80714 1.05703 7.05719C0.80698 7.30724 0.666504 7.64638 0.666504 8C0.666504 8.35362 0.80698 8.69276 1.05703 8.94281C1.30708 9.19286 1.64622 9.33333 1.99984 9.33333H25.9998C26.3535 9.33333 26.6926 9.19286 26.9426 8.94281C27.1927 8.69276 27.3332 8.35362 27.3332 8C27.3332 7.64638 27.1927 7.30724 26.9426 7.05719C26.6926 6.80714 26.3535 6.66667 25.9998 6.66667Z" fill="#1B1B2B"/>
</svg>
