<svg width="21" height="20" viewBox="0 0 21 20" fill="none" xmlns="http://www.w3.org/2000/svg">
<path d="M10.9891 11.9009C10.7133 11.9004 10.49 11.6767 10.49 11.4009V8.68C10.49 8.40386 10.7139 8.18 10.99 8.18H19.4489C19.6833 8.18 19.8876 8.34248 19.9331 8.57236C20.0312 9.06713 20.1 9.57349 20.1 10.23C20.1 15.94 16.27 20 10.5 20C4.98 20 0.5 15.52 0.5 10C0.5 4.48 4.98 0 10.5 0C13.0007 0 15.124 0.849262 16.7983 2.26176C17.0165 2.44578 17.0188 2.77639 16.8141 2.97528L14.6935 5.03615C14.5015 5.2228 14.1979 5.22302 13.9874 5.0575C13.2363 4.46702 12.0881 3.89 10.5 3.89C7.19 3.89 4.49 6.64 4.49 10.01C4.49 13.38 7.19 16.13 10.5 16.13C14.33 16.13 15.74 13.48 16 11.91L10.9891 11.9009Z" fill="currentColor"/>
</svg>
